<svg id="Layer_1" data-name="Layer 1" xmlns="http://www.w3.org/2000/svg" viewBox="0 0 250 250"><defs><style>.cls-1{fill:#308afa;}.cls-2{fill:#1251a2;}</style></defs><title>Flights@2x</title><path class="cls-1" d="M180.22,147.25l-12.11-13.17a2.47,2.47,0,0,1-.26-.23L165.25,131l-13.87,14.4-12.71,49,32.58,8.57a.93.93,0,0,0,.72-.1,1,1,0,0,0,.44-.58l3.33-12.67A19.8,19.8,0,0,1,178.47,152a2.49,2.49,0,0,1,3,1.82,17,17,0,0,1,2.57-.07c.29,0,.59,0,.88,0h.27l.13-.6.21-1A45.28,45.28,0,0,1,180.22,147.25Z"/><path class="cls-1" d="M42.44,106l.44-1.68a4.33,4.33,0,0,1-1.41-1.81,5.76,5.76,0,0,0-4-3.42,5.9,5.9,0,0,0-7,4.36L16.71,156.06a5.9,5.9,0,0,0,3.91,7.22,5.69,5.69,0,0,0,5.14-1,4.34,4.34,0,0,1,2.16-.91l.23-.88a1.5,1.5,0,0,1,1.8-1.08l2-7.59a1.5,1.5,0,0,1-1-1.82L32,145.8a1.5,1.5,0,0,1,1.81-1.07l2-7.58a1.5,1.5,0,0,1-1.05-1.82l1.1-4.19a1.5,1.5,0,0,1,1.82-1.07l2-7.58a1.5,1.5,0,0,1-1.06-1.83l1.1-4.19a1.5,1.5,0,0,1,1.82-1.07l2-7.58A1.5,1.5,0,0,1,42.44,106Z"/><path class="cls-1" d="M78.27,132.1a5.12,5.12,0,0,0-1.78,0,4.84,4.84,0,0,0-1.63.61l-4.44,2.72-11.05-6.66a1.2,1.2,0,0,0-1.24,0l-.75.45a.47.47,0,0,0-.14.67l6.7,9.5-5.45,3.33-2.6-.9a2.5,2.5,0,0,0-1.52-.14.49.49,0,0,0-.23.82l2.64,2.74h0q-.14.28-.26.56a.44.44,0,0,0,.38.61h.52l1.3,3.7a.49.49,0,0,0,.85.14,2.5,2.5,0,0,0,.54-1.4l.18-2.85s.83-.39,1.4-.73c1.46-.86,4.24-2.52,4.24-2.52l5.22,10.31a.47.47,0,0,0,.66.19l.77-.46a1.2,1.2,0,0,0,.58-1.09l-.7-12.81L77,136.22a5,5,0,0,0,2.15-2.72,1,1,0,0,0-.84-1.4Z"/><polygon class="cls-1" points="225.34 75.95 223.64 74.06 162.6 90.32 180.58 110.63 225.34 75.95"/><polygon class="cls-1" points="160.23 128.98 160.4 128.81 161.88 127.28 143.75 107.38 137.81 123.08 121.18 167.01 122.36 168.32 153.94 135.52 160.23 128.98"/><path class="cls-2" d="M33.82,144.73h0A1.5,1.5,0,0,0,32,145.8L30.89,150a1.5,1.5,0,0,0,1,1.82h0a1.52,1.52,0,0,0,.38,0,1.5,1.5,0,0,0,1.45-1.12l1.1-4.19A1.5,1.5,0,0,0,33.82,144.73Z"/><path class="cls-2" d="M35.79,137.14h0a1.52,1.52,0,0,0,.38,0,1.5,1.5,0,0,0,1.45-1.12l1.1-4.19a1.5,1.5,0,0,0-1.07-1.83h0a1.5,1.5,0,0,0-1.82,1.07l-1.1,4.19A1.5,1.5,0,0,0,35.79,137.14Z"/><path class="cls-2" d="M39.65,122.47h0a1.52,1.52,0,0,0,.38,0,1.5,1.5,0,0,0,1.45-1.12l1.1-4.19a1.5,1.5,0,0,0-1.07-1.83h0a1.5,1.5,0,0,0-1.82,1.07l-1.1,4.19A1.5,1.5,0,0,0,39.65,122.47Z"/><path class="cls-2" d="M111.55,143.14a1.5,1.5,0,0,0,.38-3L94.47,135.6a1.5,1.5,0,1,0-.76,2.9l17.46,4.59A1.48,1.48,0,0,0,111.55,143.14Z"/><path class="cls-2" d="M109.86,149.59,92,144.9a1.5,1.5,0,1,0-.76,2.9l17.83,4.69a1.48,1.48,0,0,0,.38,0,1.5,1.5,0,0,0,.38-3Z"/><path class="cls-2" d="M87.75,155.27a1.5,1.5,0,0,0,1.07,1.83l17.32,4.56a1.48,1.48,0,0,0,.38,0,1.5,1.5,0,0,0,.38-3L89.58,154.2A1.5,1.5,0,0,0,87.75,155.27Z"/><path class="cls-2" d="M179.66,156.84a2.52,2.52,0,0,0,1.83-3h0a2.49,2.49,0,0,0-3-1.82,19.8,19.8,0,0,0-2.72,37.59l-3.33,12.67a1,1,0,0,1-.44.58.93.93,0,0,1-.72.1l-32.58-8.57L36.43,167.45a5.77,5.77,0,0,1-3.89-3.39,4.39,4.39,0,0,0-1.71-2l.21-.8A1.5,1.5,0,0,0,30,159.41h0a1.5,1.5,0,0,0-1.8,1.08l-.23.88a4.34,4.34,0,0,0-2.16.91,5.69,5.69,0,0,1-5.14,1,5.9,5.9,0,0,1-3.91-7.22l13.85-52.63a5.9,5.9,0,0,1,7-4.36,5.76,5.76,0,0,1,4,3.42,4.33,4.33,0,0,0,1.41,1.81L42.44,106a1.5,1.5,0,0,0,1.07,1.83h0a1.5,1.5,0,0,0,1.83-1.07l.4-1.53a4.4,4.4,0,0,0,2.52-.93,5.77,5.77,0,0,1,5.05-1l61.61,16.21a2.49,2.49,0,0,0,3-1.58c0-.07.06-.13.07-.2a2.5,2.5,0,0,0-1.78-3.05L54.6,98.39a10.73,10.73,0,0,0-8.81,1.5,10.77,10.77,0,0,0-7.11-5.68,10.93,10.93,0,0,0-13,8L11.87,154.79a10.93,10.93,0,0,0,7.37,13.3,10.77,10.77,0,0,0,9-1.45,10.72,10.72,0,0,0,6.93,5.64L170,207.75a6,6,0,0,0,1.52.2,6,6,0,0,0,5.75-4.44l3.93-14.93a2.5,2.5,0,0,0-1.78-3.05,14.8,14.8,0,0,1,.26-28.69Z"/><path class="cls-2" d="M50.85,122l-7.16,27.21a5.06,5.06,0,0,0,3.61,6.18l27.21,7.16a5.08,5.08,0,0,0,1.3.17A5.07,5.07,0,0,0,80.69,159l7.16-27.21a5.06,5.06,0,0,0-3.61-6.18L57,118.42A5.06,5.06,0,0,0,50.85,122Zm32.63,6.45A2.06,2.06,0,0,1,84.95,131l-7.16,27.21a2.06,2.06,0,0,1-2.52,1.47h0l-27.21-7.16A2.06,2.06,0,0,1,46.59,150l7.16-27.21a2.06,2.06,0,0,1,2.52-1.47Z"/><path class="cls-2" d="M111.52,126.37a1.5,1.5,0,0,0,.38-3l-53.16-14a1.5,1.5,0,1,0-.76,2.9l53.16,14A1.48,1.48,0,0,0,111.52,126.37Z"/><path class="cls-2" d="M43.75,164.4l64.9,17.07a1.48,1.48,0,0,0,.38,0,1.5,1.5,0,0,0,.38-3L44.51,161.5a1.5,1.5,0,1,0-.76,2.9Z"/><path class="cls-2" d="M216.22,134.88,203,136.56a45.07,45.07,0,0,0-4-5.36c-4.27-4.86-11.62-13.07-15-16.84l44.57-34.52a4.9,4.9,0,0,0,.64-7.16l-3.06-3.4a8.62,8.62,0,0,0-8.49-2.59h0l-.74.18L193,72.81l-3.92-4.37a4.62,4.62,0,0,0-6.52-.35l-4.55,4.08a4.63,4.63,0,0,0-1.35,4.72l-6.29,1.57-15,3.75L138.58,63.29a28,28,0,0,0-17.28-8.94,7.83,7.83,0,0,0-9,8.1,28.63,28.63,0,0,0,1.92,9.78,27.21,27.21,0,0,0,5.14,8.37l16.92,18.55-3.7,10.08a2.49,2.49,0,0,0-.26.51l-3.79,10.38a4.65,4.65,0,0,0-2.71-.2,4.58,4.58,0,0,0-2.07,1.06l-4.55,4.08a4.63,4.63,0,0,0-.35,6.53l3.91,4.35-3.53,9.67L114,159.67a8.6,8.6,0,0,0,1.68,8.74l3,3.34a4.91,4.91,0,0,0,3.56,1.63h.08a4.92,4.92,0,0,0,3.53-1.5l25.5-26.48L165.25,131l2.61,2.86a2.47,2.47,0,0,0,.26.23l12.11,13.17a45.28,45.28,0,0,0,5.33,4.93l-.21,1-.13.6-2.38,11.11a15.32,15.32,0,0,0,3.54,13.37,2.5,2.5,0,0,0,1.87.84h.14a2.5,2.5,0,0,0,1.9-1.06l12.35-17.55c.5.12,1,.24,1.51.34a4.73,4.73,0,0,0,1.88,0l2.87,3.12a2.5,2.5,0,0,0,3.68-3.38l-2.9-3.15a4.72,4.72,0,0,0,.12-1.88l-.12-.88,0-.12,19-11.12a2.5,2.5,0,0,0,.56-3.88A15.34,15.34,0,0,0,216.22,134.88Zm-93.86,33.45L121.18,167l-1.75-1.94a3.61,3.61,0,0,1-.71-3.67l2-5.41a2.48,2.48,0,0,0,.1-.23l3.15-8.64,4-10.85c0-.06,0-.12,0-.18l3.84-10.53a2.44,2.44,0,0,0,.15-.29l1.25-3.39,6.82-18.56,3.7,4.06,18.12,19.9-1.48,1.54-.16.17-6.29,6.53Zm72.22-16.24a39.46,39.46,0,0,1-5.35-3.41l-.2-.15a40.14,40.14,0,0,1-5.13-4.67l-10.49-11.41-.12-.13-6.15-6.69,0,0L141,96.9h0L123,77.25a22.21,22.21,0,0,1-4.18-6.83,23.65,23.65,0,0,1-1.58-8.08,2.84,2.84,0,0,1,3.38-3,23,23,0,0,1,14.2,7.32l17.83,20h0l25.63,28.94.06.06,0,0c.11.12,11.12,12.39,16.76,18.8a40.07,40.07,0,0,1,8.69,16.58l-2.16-2.36a2.5,2.5,0,0,0-3.68,3.38l2.24,2.44A39.59,39.59,0,0,1,194.58,152.09Zm29.05-78L225.34,76l-44.76,34.67-18-20.31-3.44-3.88,15.12-3.78,44.51-11.12h0a3.63,3.63,0,0,1,3.57,1.09Z"/></svg>