<?xml version="1.0" encoding="utf-8"?>
<!-- Generator: Adobe Illustrator 21.0.2, SVG Export Plug-In . SVG Version: 6.00 Build 0)  -->
<svg version="1.1" id="Layer_1" xmlns="http://www.w3.org/2000/svg" xmlns:xlink="http://www.w3.org/1999/xlink" x="0px" y="0px"
	 viewBox="0 0 250 250" style="enable-background:new 0 0 250 250;" xml:space="preserve">
<style type="text/css">
	.st0{fill:#3D8BF6;}
	.st1{fill:#FFFFFF;}
	.st2{fill:#1E539F;}
	.st3{fill:none;stroke:#1E539F;stroke-width:5;stroke-linecap:round;stroke-linejoin:round;}
	.st4{fill:#FFFFFF;stroke:#1E539F;stroke-width:5;stroke-linecap:round;stroke-linejoin:round;}
	.st5{fill:#1E539F;stroke:#1E539F;stroke-width:3;stroke-linecap:round;stroke-linejoin:round;}
</style>
<title>Hotel-2</title>
<rect x="51.7" y="57.1" class="st0" width="42.6" height="10.3"/>
<rect x="88.1" y="68.7" class="st0" width="108" height="12.2"/>
<rect x="86.1" y="204.2" class="st0" width="41.7" height="15.9"/>
<rect x="156.3" y="204.2" class="st0" width="37.9" height="15.9"/>
<rect x="130" y="193.8" class="st1" width="24.4" height="26.1"/>
<rect x="89.3" y="23.2" class="st2" width="105.6" height="33.4"/>
<rect x="89.3" y="23.2" class="st3" width="105.6" height="33.4"/>
<rect x="56.6" y="67.5" class="st0" width="31.7" height="154.9"/>
<rect x="130" y="193.8" class="st0" width="25.2" height="10.4"/>
<path class="st2" d="M196.1,224.8H88.2c-1.4,0-2.5-1.1-2.5-2.5V67.5c0-1.4,1.1-2.5,2.5-2.5h107.8c1.4,0,2.5,1.1,2.5,2.5v154.9
	C198.6,223.7,197.4,224.8,196.1,224.8z M90.7,219.8h102.8V70H90.7V219.8z"/>
<path class="st2" d="M88.2,224.8H56.6c-1.4,0-2.5-1.1-2.5-2.5V67.5c0-1.4,1.1-2.5,2.5-2.5h31.7c1.4,0,2.5,1.1,2.5,2.5
	S89.6,70,88.2,70H59.1v149.9h29.2c1.4,0,2.5,1.1,2.5,2.5S89.6,224.8,88.2,224.8z"/>
<path class="st2" d="M193.5,206.7h-36c-1.4,0-2.5-1.1-2.5-2.5s1.1-2.5,2.5-2.5h36c1.4,0,2.5,1.1,2.5,2.5S194.9,206.7,193.5,206.7z"
	/>
<path class="st2" d="M125.2,206.7H56.6c-1.4,0-2.5-1.1-2.5-2.5s1.1-2.5,2.5-2.5h68.7c1.4,0,2.5,1.1,2.5,2.5S126.6,206.7,125.2,206.7
	z"/>
<path class="st2" d="M157,222.4c-1.4,0-2.5-1.1-2.5-2.5v-23.6H130v23.6c0,1.4-1.1,2.5-2.5,2.5s-2.5-1.1-2.5-2.5v-26.1
	c0-1.4,1.1-2.5,2.5-2.5H157c1.4,0,2.5,1.1,2.5,2.5v26.1C159.5,221.3,158.4,222.4,157,222.4z"/>
<path class="st4" d="M163.4,193.8c0-11.8-9.6-21.3-21.3-21.3c-11.8,0-21.3,9.5-21.3,21.3H163.4"/>
<g>
	<path class="st0" d="M163.4,193.8c0-11.8-9.6-21.3-21.3-21.3c-11.8,0-21.3,9.5-21.3,21.3H163.4"/>
	<path class="st2" d="M163.5,196.3h-42.6c-0.7,0-1.3-0.3-1.8-0.7c-0.5-0.5-0.7-1.1-0.7-1.8c0-13.1,10.7-23.8,23.8-23.8c0,0,0,0,0,0
		c13.1,0,23.8,10.7,23.8,23.8c0,0.7-0.3,1.3-0.7,1.8C164.8,196,164.1,196.3,163.5,196.3z M123.5,191.3h37.3
		c-1.2-9.2-9.1-16.3-18.6-16.3c0,0,0,0,0,0C132.6,175,124.7,182.1,123.5,191.3z"/>
</g>
<path class="st2" d="M194.8,81.4H56.6c-1.4,0-2.5-1.1-2.5-2.5s1.1-2.5,2.5-2.5h138.2c1.4,0,2.5,1.1,2.5,2.5S196.2,81.4,194.8,81.4z"
	/>
<path class="st2" d="M201.3,70H51.6c-1.4,0-2.5-1.1-2.5-2.5V57.1c0-1.4,1.1-2.5,2.5-2.5h149.7c1.4,0,2.5,1.1,2.5,2.5v10.3
	C203.8,68.8,202.7,70,201.3,70z M54.1,65h144.7v-5.3H54.1V65z"/>
<path class="st2" d="M94.2,70c-1.4,0-2.5-1.1-2.5-2.5v-10c0-1.4,1.1-2.5,2.5-2.5s2.5,1.1,2.5,2.5v10C96.7,68.9,95.6,70,94.2,70z"/>
<g>
	<rect x="101.9" y="179.6" class="st2" width="7.1" height="33.6"/>
	<path class="st2" d="M109,214.7h-7c-0.8,0-1.5-0.7-1.5-1.5v-33.6c0-0.8,0.7-1.5,1.5-1.5h7c0.8,0,1.5,0.7,1.5,1.5v33.6
		C110.5,214.1,109.8,214.7,109,214.7z M103.4,211.7h4v-30.6h-4V211.7z"/>
</g>
<g>
	<rect x="101.9" y="148.9" class="st2" width="7.1" height="13.1"/>
	<path class="st2" d="M109,163.5h-7c-0.8,0-1.5-0.7-1.5-1.5v-13.1c0-0.8,0.7-1.5,1.5-1.5h7c0.8,0,1.5,0.7,1.5,1.5V162
		C110.5,162.8,109.8,163.5,109,163.5z M103.4,160.5h4v-10.1h-4V160.5z"/>
</g>
<g>
	<rect x="126.4" y="148.9" class="st2" width="7.1" height="13.1"/>
	<path class="st2" d="M133.5,163.5h-7c-0.8,0-1.5-0.7-1.5-1.5v-13.1c0-0.8,0.7-1.5,1.5-1.5h7c0.8,0,1.5,0.7,1.5,1.5V162
		C135,162.8,134.3,163.5,133.5,163.5z M127.9,160.5h4v-10.1h-4V160.5z"/>
</g>
<g>
	<rect x="151" y="148.9" class="st2" width="7.1" height="13.1"/>
	<path class="st2" d="M158,163.5h-7c-0.8,0-1.5-0.7-1.5-1.5v-13.1c0-0.8,0.7-1.5,1.5-1.5h7c0.8,0,1.5,0.7,1.5,1.5V162
		C159.5,162.8,158.8,163.5,158,163.5z M152.5,160.5h4v-10.1h-4V160.5z"/>
</g>
<g>
	<rect x="175.5" y="148.9" class="st2" width="7.1" height="13.1"/>
	<path class="st2" d="M182.6,163.5h-7c-0.8,0-1.5-0.7-1.5-1.5v-13.1c0-0.8,0.7-1.5,1.5-1.5h7c0.8,0,1.5,0.7,1.5,1.5V162
		C184.1,162.8,183.4,163.5,182.6,163.5z M177,160.5h4v-10.1h-4V160.5z"/>
</g>
<g>
	<rect x="101.9" y="121" class="st2" width="7.1" height="13.1"/>
	<path class="st2" d="M109,135.7h-7c-0.8,0-1.5-0.7-1.5-1.5V121c0-0.8,0.7-1.5,1.5-1.5h7c0.8,0,1.5,0.7,1.5,1.5v13.1
		C110.5,135,109.8,135.7,109,135.7z M103.4,132.7h4v-10.1h-4V132.7z"/>
</g>
<g>
	<rect x="126.4" y="121" class="st2" width="7.1" height="13.1"/>
	<path class="st2" d="M133.5,135.7h-7c-0.8,0-1.5-0.7-1.5-1.5V121c0-0.8,0.7-1.5,1.5-1.5h7c0.8,0,1.5,0.7,1.5,1.5v13.1
		C135,135,134.3,135.7,133.5,135.7z M127.9,132.7h4v-10.1h-4V132.7z"/>
</g>
<g>
	<rect x="151" y="121" class="st2" width="7.1" height="13.1"/>
	<path class="st2" d="M158,135.7h-7c-0.8,0-1.5-0.7-1.5-1.5V121c0-0.8,0.7-1.5,1.5-1.5h7c0.8,0,1.5,0.7,1.5,1.5v13.1
		C159.5,135,158.8,135.7,158,135.7z M152.5,132.7h4v-10.1h-4V132.7z"/>
</g>
<g>
	<rect x="175.5" y="121" class="st2" width="7.1" height="13.1"/>
	<path class="st2" d="M182.6,135.7h-7c-0.8,0-1.5-0.7-1.5-1.5V121c0-0.8,0.7-1.5,1.5-1.5h7c0.8,0,1.5,0.7,1.5,1.5v13.1
		C184.1,135,183.4,135.7,182.6,135.7z M177,132.7h4v-10.1h-4V132.7z"/>
</g>
<g>
	<rect x="101.9" y="93.2" class="st2" width="7.1" height="13.1"/>
	<path class="st2" d="M109,107.8h-7c-0.8,0-1.5-0.7-1.5-1.5V93.2c0-0.8,0.7-1.5,1.5-1.5h7c0.8,0,1.5,0.7,1.5,1.5v13.1
		C110.5,107.1,109.8,107.8,109,107.8z M103.4,104.8h4V94.7h-4V104.8z"/>
</g>
<g>
	<rect x="126.4" y="93.2" class="st2" width="7.1" height="13.1"/>
	<path class="st2" d="M133.5,107.8h-7c-0.8,0-1.5-0.7-1.5-1.5V93.2c0-0.8,0.7-1.5,1.5-1.5h7c0.8,0,1.5,0.7,1.5,1.5v13.1
		C135,107.1,134.3,107.8,133.5,107.8z M127.9,104.8h4V94.7h-4V104.8z"/>
</g>
<g>
	<rect x="151" y="93.2" class="st2" width="7.1" height="13.1"/>
	<path class="st2" d="M158,107.8h-7c-0.8,0-1.5-0.7-1.5-1.5V93.2c0-0.8,0.7-1.5,1.5-1.5h7c0.8,0,1.5,0.7,1.5,1.5v13.1
		C159.5,107.1,158.8,107.8,158,107.8z M152.5,104.8h4V94.7h-4V104.8z"/>
</g>
<g>
	<rect x="175.5" y="93.2" class="st2" width="7.1" height="13.1"/>
	<path class="st2" d="M182.6,107.8h-7c-0.8,0-1.5-0.7-1.5-1.5V93.2c0-0.8,0.7-1.5,1.5-1.5h7c0.8,0,1.5,0.7,1.5,1.5v13.1
		C184.1,107.1,183.4,107.8,182.6,107.8z M177,104.8h4V94.7h-4V104.8z"/>
</g>
<g>
	<rect x="68.9" y="148.9" class="st2" width="7.1" height="13.1"/>
	<path class="st2" d="M75.9,163.5h-7c-0.8,0-1.5-0.7-1.5-1.5v-13.1c0-0.8,0.7-1.5,1.5-1.5h7c0.8,0,1.5,0.7,1.5,1.5V162
		C77.4,162.8,76.7,163.5,75.9,163.5z M70.4,160.5h4v-10.1h-4V160.5z"/>
</g>
<g>
	<rect x="68.9" y="121" class="st2" width="7.1" height="13.1"/>
	<path class="st2" d="M75.9,135.7h-7c-0.8,0-1.5-0.7-1.5-1.5V121c0-0.8,0.7-1.5,1.5-1.5h7c0.8,0,1.5,0.7,1.5,1.5v13.1
		C77.4,135,76.7,135.7,75.9,135.7z M70.4,132.7h4v-10.1h-4V132.7z"/>
</g>
<g>
	<rect x="68.9" y="176.7" class="st2" width="7.1" height="13.1"/>
	<path class="st2" d="M75.9,191.4h-7c-0.8,0-1.5-0.7-1.5-1.5v-13.1c0-0.8,0.7-1.5,1.5-1.5h7c0.8,0,1.5,0.7,1.5,1.5v13.1
		C77.4,190.7,76.7,191.4,75.9,191.4z M70.4,188.4h4v-10.1h-4V188.4z"/>
</g>
<g>
	<rect x="68.9" y="93.2" class="st2" width="7.1" height="13.1"/>
	<path class="st2" d="M75.9,107.8h-7c-0.8,0-1.5-0.7-1.5-1.5V93.2c0-0.8,0.7-1.5,1.5-1.5h7c0.8,0,1.5,0.7,1.5,1.5v13.1
		C77.4,107.1,76.7,107.8,75.9,107.8z M70.4,104.8h4V94.7h-4V104.8z"/>
</g>
<rect x="175.6" y="179.6" class="st5" width="7.1" height="33.6"/>
<path class="st2" d="M142.2,224.8c-1.4,0-2.5-1.1-2.5-2.5v-28.6c0-1.4,1.1-2.5,2.5-2.5s2.5,1.1,2.5,2.5v28.6
	C144.8,223.7,143.6,224.8,142.2,224.8z"/>
<path class="st2" d="M66.4,59.6c-0.7,0-1.5-0.3-2-1c-0.9-1.1-0.7-2.7,0.4-3.5l22-17.2c1.1-0.8,2.7-0.7,3.5,0.4
	c0.9,1.1,0.7,2.7-0.4,3.5l-22,17.2C67.4,59.5,66.9,59.6,66.4,59.6z"/>
<path class="st1" d="M105.1,37.2h3.3c0.9,0,1.5-0.7,1.6-1.5c0,0,0,0,0,0v-6.5c0-0.9,0.7-1.5,1.5-1.5c0,0,0,0,0,0h0.8
	c0.9,0,1.5,0.7,1.5,1.5c0,0,0,0,0,0l0.1,20.2c0,0.9-0.7,1.6-1.5,1.6c0,0,0,0-0.1,0h-0.8c-0.9,0-1.6-0.7-1.6-1.5c0,0,0,0,0-0.1v-7.3
	c0-0.9-0.7-1.5-1.6-1.5l0,0h-3.3c-0.9,0-1.6,0.7-1.6,1.5c0,0,0,0,0,0v7.3c0,0.9-0.7,1.6-1.5,1.6c0,0,0,0,0,0h-0.8
	c-0.9,0-1.6-0.7-1.6-1.5c0,0,0,0,0,0l-0.1-20.2c0-0.9,0.7-1.5,1.5-1.5c0,0,0,0,0,0h0.9c0.9,0,1.5,0.7,1.6,1.5c0,0,0,0,0,0v6.5
	C103.6,36.6,104.2,37.2,105.1,37.2z"/>
<path class="st1" d="M119.8,40.8v-3c0-7.3,3-10.5,7.3-10.5s7.3,3.1,7.4,10.4v3c0,7.3-3,10.5-7.3,10.5S119.8,48.1,119.8,40.8z
	 M123.7,37.8v3c0,5,1.1,7.1,3.4,7.1c2.3,0,3.4-2.1,3.4-7.1v-3c0-5-1.1-7.1-3.4-7.1S123.7,32.8,123.7,37.8L123.7,37.8z"/>
<path class="st1" d="M152.7,28.6v1.3c0,0.6-0.4,1-1,1h-3.1c-0.6,0-1,0.4-1,1c0,0,0,0,0,0.1v17.8c0,0.6-0.4,1-0.9,1.1c0,0,0,0-0.1,0
	h-1.8c-0.6,0-1-0.4-1-0.9c0,0,0,0,0-0.1V32c0-0.6-0.4-1-1-1c0,0,0,0-0.1,0h-3.1c-0.6,0-1-0.4-1-0.9c0,0,0,0,0-0.1v-1.4
	c0-0.6,0.4-1,0.9-1c0,0,0,0,0.1,0h12.3C152.2,27.6,152.7,28.1,152.7,28.6z"/>
<path class="st1" d="M169.2,28.6v1.3c0,0.6-0.5,1.1-1.1,1.1h-5.8c-0.6,0-1,0.4-1,1V36c0,0.6,0.4,1,0.9,1c0,0,0,0,0.1,0h5
	c0.6,0,1,0.4,1.1,1v1.4c0,0.6-0.4,1-0.9,1c0,0-0.1,0-0.1,0h-5c-0.6,0-1,0.5-1,1.1v4.9c0,0.6,0.4,1,0.9,1c0,0,0,0,0.1,0h5.8
	c0.6,0,1,0.4,1,0.9c0,0,0,0,0,0.1v1.3c0,0.5-0.5,1-1,1h-9.8c-0.6,0-1-0.4-1-0.9c0,0,0,0,0-0.1l-0.1-21.2c0-0.6,0.4-1,0.9-1
	c0,0,0.1,0,0.1,0h9.8C168.8,27.5,169.2,27.9,169.2,28.6C169.3,28.5,169.3,28.5,169.2,28.6z"/>
<path class="st1" d="M179.8,47.4h5.8c0.6,0,1,0.4,1.1,1v1.3c0,0.6-0.4,1-0.9,1c0,0,0,0-0.1,0h-9.8c-0.6,0-1-0.4-1-0.9c0,0,0,0,0-0.1
	l-0.1-21.2c0-0.6,0.4-1,1-1h1.8c0.6,0,1,0.4,1.1,1v17.8C178.7,46.9,179.2,47.4,179.8,47.4C179.8,47.4,179.8,47.4,179.8,47.4z"/>
<path class="st2" d="M209.2,224.8H43c-1.4,0-2.5-1.1-2.5-2.5s1.1-2.5,2.5-2.5h166.2c1.4,0,2.5,1.1,2.5,2.5S210.6,224.8,209.2,224.8z
	"/>
</svg>
