<svg id="Layer_1" data-name="Layer 1" xmlns="http://www.w3.org/2000/svg" viewBox="0 0 250 250"><defs><style>.cls-1{fill:none;}.cls-2{fill:#308afa;}.cls-3{fill:#1251a2;}</style></defs><title>Quick Picks@2x</title><path class="cls-1" d="M71.32,191.39h1a7.71,7.71,0,0,1-2.06-5.25V148.45a7.71,7.71,0,0,1,2.06-5.25h-1a5.25,5.25,0,0,0-5.25,5.25v37.69A5.25,5.25,0,0,0,71.32,191.39Z"/><path class="cls-1" d="M70.25,80.93a7.53,7.53,0,0,1,2-5.07h-.89a5.25,5.25,0,0,0-5.25,5.25V118.8A5.25,5.25,0,0,0,71.32,124h.89a7.53,7.53,0,0,1-2-5.07Z"/><path class="cls-2" d="M225.34,143.21h-153a7.71,7.71,0,0,0-2.06,5.25v37.69a7.71,7.71,0,0,0,2.06,5.25h153a5.25,5.25,0,0,0,5.25-5.25V148.45A5.25,5.25,0,0,0,225.34,143.21ZM110.54,156.86h32.81a1.5,1.5,0,0,1,0,3H110.54a1.5,1.5,0,0,1,0-3Zm-10.7,8.27-4.4,3.2a.78.78,0,0,0-.28.87l1.68,5.18a.78.78,0,0,1-1.2.87l-4.4-3.2a.78.78,0,0,0-.92,0l-4.4,3.2a.78.78,0,0,1-1.2-.87l1.68-5.18a.78.78,0,0,0-.28-.87l-4.4-3.2a.78.78,0,0,1,.46-1.41h5.44a.78.78,0,0,0,.74-.54L90,158a.78.78,0,0,1,1.49,0l1.68,5.18a.78.78,0,0,0,.74.54h5.44A.78.78,0,0,1,99.85,165.13Zm79.9,11.22h-69.2a1.5,1.5,0,1,1,0-3h69.2a1.5,1.5,0,1,1,0,3Zm28-16.49H152.68a1.5,1.5,0,0,1,0-3h55.06a1.5,1.5,0,0,1,0,3Z"/><path class="cls-2" d="M225.34,75.86H72.21a7.53,7.53,0,0,0-2,5.07v38a7.53,7.53,0,0,0,2,5.07H225.34a5.25,5.25,0,0,0,5.25-5.25V81.11A5.25,5.25,0,0,0,225.34,75.86Zm-112,13.65h30a1.5,1.5,0,0,1,0,3h-30a1.5,1.5,0,0,1,0-3ZM83.87,106.19v.05a1.06,1.06,0,0,1-1.06,1.06H80.47a1,1,0,0,1-1-1V95.45a1,1,0,0,1,1-1h2.34a1.11,1.11,0,0,1,1.06,1.06ZM102,99.34a2.12,2.12,0,0,1-.76,1,.71.71,0,0,0-.23.85,2.88,2.88,0,0,1,.12,1.7,2.65,2.65,0,0,1-1,1.56.71.71,0,0,0-.24.76,1.58,1.58,0,0,1,0,.79A2.14,2.14,0,0,1,98,107.48c-.59.07-5.89-.8-8.85-1.25a6.34,6.34,0,0,0-1-.07H86.67a.51.51,0,0,1-.52-.51v-10a.51.51,0,0,1,.51-.51h.5s3.33-.23,5.29-5.09a13.87,13.87,0,0,1,.69-1.72,2.16,2.16,0,0,1,1.4-1.13A2.06,2.06,0,0,1,96.71,89a5.51,5.51,0,0,1-.56,3,8.13,8.13,0,0,0-.76,2.4,1.24,1.24,0,0,0,1.09,1.42c.71.17,2.08.38,2.48.44a6.56,6.56,0,0,1,1.26.23,2.82,2.82,0,0,1,1.46,1A2.13,2.13,0,0,1,102,99.34ZM179.75,109h-66.4a1.5,1.5,0,0,1,0-3h66.4a1.5,1.5,0,0,1,0,3Zm28-16.49H152.68a1.5,1.5,0,0,1,0-3h55.06a1.5,1.5,0,0,1,0,3Z"/><path class="cls-3" d="M26.64,206.54H147.32c2.87,0,5.74-2.17,7-5.27a2.5,2.5,0,1,0-4.64-1.87,3.22,3.22,0,0,1-2.35,2.14H26.64c-2.69,0-4.5-1.43-4.5-3.57V159.89H54.47a2.5,2.5,0,0,0,0-5H22.14V111.23H55.4a2.5,2.5,0,1,0,0-5H22.14V68.58A3.57,3.57,0,0,1,25.71,65H146.39a3.57,3.57,0,0,1,3.16,1.9A2.5,2.5,0,1,0,154,64.56,8.56,8.56,0,0,0,146.39,60H25.71a8.58,8.58,0,0,0-8.57,8.57V198C17.14,202.94,21.13,206.54,26.64,206.54Z"/><path class="cls-3" d="M39.31,81.85a1.5,1.5,0,0,0,0,3H55.67a1.5,1.5,0,1,0,0-3Z"/><path class="cls-3" d="M55.76,182.9H39.31a1.5,1.5,0,0,0,0,3H55.76a1.5,1.5,0,1,0,0-3Z"/><path class="cls-3" d="M225.34,138.21h-154a10.26,10.26,0,0,0-10.25,10.25v37.69a10.26,10.26,0,0,0,10.25,10.25h154a10.26,10.26,0,0,0,10.25-10.25V148.45A10.26,10.26,0,0,0,225.34,138.21Zm-154,53.18a5.25,5.25,0,0,1-5.25-5.25V148.45a5.25,5.25,0,0,1,5.25-5.25h154a5.25,5.25,0,0,1,5.25,5.25v37.69a5.25,5.25,0,0,1-5.25,5.25h-154Z"/><path class="cls-3" d="M207.74,156.86H152.68a1.5,1.5,0,0,0,0,3h55.06a1.5,1.5,0,0,0,0-3Z"/><path class="cls-3" d="M110.54,159.86h32.81a1.5,1.5,0,0,0,0-3H110.54a1.5,1.5,0,0,0,0,3Z"/><path class="cls-3" d="M179.75,173.35h-69.2a1.5,1.5,0,1,0,0,3h69.2a1.5,1.5,0,1,0,0-3Z"/><path class="cls-3" d="M225.34,70.86h-154A10.26,10.26,0,0,0,61.07,81.11V118.8A10.26,10.26,0,0,0,71.32,129h154a10.26,10.26,0,0,0,10.25-10.25V81.11A10.26,10.26,0,0,0,225.34,70.86ZM71.32,124a5.25,5.25,0,0,1-5.25-5.25V81.11a5.25,5.25,0,0,1,5.25-5.25h154a5.25,5.25,0,0,1,5.25,5.25V118.8a5.25,5.25,0,0,1-5.25,5.25h-154Z"/><path class="cls-3" d="M207.74,89.52H152.68a1.5,1.5,0,0,0,0,3h55.06a1.5,1.5,0,0,0,0-3Z"/><path class="cls-3" d="M113.34,92.52h30a1.5,1.5,0,0,0,0-3h-30a1.5,1.5,0,0,0,0,3Z"/><path class="cls-3" d="M179.75,106h-66.4a1.5,1.5,0,0,0,0,3h66.4a1.5,1.5,0,0,0,0-3Z"/><path class="cls-3" d="M37.81,133.28a1.5,1.5,0,0,0,1.5,1.5H67.8a1.5,1.5,0,0,0,0-3H39.31A1.5,1.5,0,0,0,37.81,133.28Z"/></svg>