<svg id="Layer_1" data-name="Layer 1" xmlns="http://www.w3.org/2000/svg" viewBox="0 0 250 250"><defs><style>.cls-1{fill:none;}.cls-2{fill:#308afa;}.cls-3{fill:#1251a2;}</style></defs><title>Concierge@2x</title><polygon class="cls-1" points="55.18 180.28 51.66 180.28 49.2 188.83 57.92 188.83 59.12 180.28 55.18 180.28"/><path class="cls-2" d="M95.08,136.18v-2.92H90.31a2.5,2.5,0,1,1,0-5h14.54a2.5,2.5,0,0,1,0,5h-4.77v2.92h10.69a31.78,31.78,0,0,1,30.56,23.21l5.77-.08s0,0,0,0a2.5,2.5,0,0,1,2.5-2.5h8.34a2.5,2.5,0,0,1,1.77.73L178.5,176.3V159.56a2.5,2.5,0,0,1,2.5-2.5h4.2a16.44,16.44,0,0,0,16.42-16.42V81.3A16.44,16.44,0,0,0,185.2,64.88H96a16.39,16.39,0,0,0-2.8.26A18.89,18.89,0,0,0,84.12,81.3v54.88h11Zm64.67-6.64H121.85a2.5,2.5,0,1,1,0-5h37.91a2.5,2.5,0,1,1,0,5Zm20-19.35H162.38a2.5,2.5,0,0,1,0-5h17.38a2.5,2.5,0,0,1,0,5ZM105.85,85.85h73.91a2.5,2.5,0,0,1,0,5H105.85a2.5,2.5,0,0,1,0-5Zm0,19.35h42a2.5,2.5,0,0,1,0,5h-42a2.5,2.5,0,1,1,0-5Z"/><polygon class="cls-2" points="60.54 188.83 145.8 188.83 143.34 180.28 140 180.28 61.74 180.28 60.43 180.28 58.12 180.28 55.92 188.83 59.23 188.83 60.54 188.83"/><path class="cls-2" d="M63.17,167h.18a1.5,1.5,0,0,0,1.49-1.33A20.35,20.35,0,0,1,72,152.53a19.86,19.86,0,0,1,3.13-2.13,1.5,1.5,0,0,0-1.45-2.63,22.85,22.85,0,0,0-3.6,2.45,23.37,23.37,0,0,0-8.19,15.13A1.5,1.5,0,0,0,63.17,167Z"/><path class="cls-2" d="M82.2,148h.19c.58-.07,1.15-.11,1.73-.14a19.44,19.44,0,0,1,2.09,0,1.5,1.5,0,1,0,.2-3,22.42,22.42,0,0,0-2.29,0c-.7,0-1.41.08-2.11.17a1.5,1.5,0,0,0,.19,3Z"/><path class="cls-3" d="M45.88,193.83H149.12a2.5,2.5,0,0,0,2.4-3.19l-3.9-13.55a2.5,2.5,0,0,0-2.4-1.81H142.5v-7.37a31.75,31.75,0,0,0-31.73-31.73H100.08v-2.92h4.77a2.5,2.5,0,0,0,0-5H90.31a2.5,2.5,0,1,0,0,5h4.77v2.92h-11a31.76,31.76,0,0,0-31.44,31.72v7.38h-2.9a2.5,2.5,0,0,0-2.4,1.81l-3.9,13.55a2.5,2.5,0,0,0,2.4,3.19Zm11.8-25.92a26.76,26.76,0,0,1,26.44-26.72h26.65a26.75,26.75,0,0,1,26.73,26.73v7.38H57.68Zm-6,12.38h91.68l2.46,8.55H49.2Z"/><path class="cls-3" d="M77.12,132.67a2.5,2.5,0,0,0,2.5-2.5V81.3A16.53,16.53,0,0,1,96,64.88H185.2A16.44,16.44,0,0,1,201.62,81.3v59.34a16.44,16.44,0,0,1-16.42,16.42H181a2.5,2.5,0,0,0-2.5,2.5V176.3l-18.79-18.79a2.5,2.5,0,0,0-1.77-.73H149.6a2.5,2.5,0,0,0-2.5,2.5s0,0,0,0a2.5,2.5,0,0,0,2.5,2.47h7.31l22.33,22.33a2.5,2.5,0,0,0,4.27-1.77V162.06h1.7a21.45,21.45,0,0,0,21.42-21.42V81.3A21.45,21.45,0,0,0,185.2,59.88H96A21.45,21.45,0,0,0,74.62,81.3v48.87A2.5,2.5,0,0,0,77.12,132.67Z"/></svg>