<svg id="Layer_1" data-name="Layer 1" xmlns="http://www.w3.org/2000/svg" viewBox="0 0 250 250"><defs><style>.cls-1{fill:none;}.cls-2{fill:#308afa;}.cls-3{fill:#1251a2;}</style></defs><title>Social Seating@2x</title><path class="cls-1" d="M63.88,68.26a6.38,6.38,0,0,1-1.34-3.88l-.1-22.08a6.38,6.38,0,0,1,1.34-3.94A3.9,3.9,0,0,0,60,42.28L60,64.36A3.92,3.92,0,0,0,63.88,68.26Z"/><path class="cls-1" d="M119.22,82V83.7A6.47,6.47,0,0,1,120,82Z"/><path class="cls-1" d="M46.27,200a3.92,3.92,0,0,1,.92-2.51h-4.6a3,3,0,1,0,0,6h5.86A4,4,0,0,1,46.27,200Z"/><path class="cls-1" d="M65.47,203.92a2.51,2.51,0,0,1,.25.18l8.17,7.19h5l-8.26-7.37Z"/><path class="cls-1" d="M139.64,200a3.92,3.92,0,0,1,.86-2.44l-4.7-.07a3,3,0,0,0,0,6h6A4,4,0,0,1,139.64,200Z"/><path class="cls-1" d="M158.72,203.92a2.51,2.51,0,0,1,.25.18l8.17,7.19,5.16,0L164,203.92Z"/><path class="cls-2" d="M140.5,197.52a3.91,3.91,0,0,0,1.32,6h15.5a2.49,2.49,0,0,1,1.4.44H164l8.28,7.39,28.34.09.63-8.06a2.48,2.48,0,0,1,0-.55l.38-4.33Z"/><path class="cls-2" d="M208.59,118.4a4.94,4.94,0,0,0-9.85-.85L193.18,188a2.51,2.51,0,0,1-2.69,2.3,2.48,2.48,0,0,1-1.58-.75l-.38,3.73,13.54.21Z"/><path class="cls-2" d="M45,144.74a26.81,26.81,0,0,1,14-5.31l0-5.36a18.36,18.36,0,0,1-8.54-15.61V117.3a2.5,2.5,0,0,1,2.5-2.49h0v-2.15a2.5,2.5,0,0,1,0-5c8.21-.05,21.71-4.17,29.2-10.75a2.5,2.5,0,1,1,3.3,3.76c-.52.45-1.06.89-1.61,1.32l0,2.73a2.5,2.5,0,0,1,2.44,2.5l0,11.37a18.46,18.46,0,0,1-7.65,14.84v5.94A27,27,0,0,1,100,151.59c2.29-3.41,3.63-7.2,2.84-11.17-1.19-6-6.95-10.26-8.31-16.22-1.21-5.31,1.3-10.72,1.63-16.15A22.73,22.73,0,0,0,87.8,89.66a28.88,28.88,0,0,0-19.5-6.25,28.66,28.66,0,0,0-17.81,6.8c-9.32,8.24-11.14,22.21-9.53,34.55C41.84,131.49,43.54,138.1,45,144.74Z"/><path class="cls-2" d="M96.63,155.72A22,22,0,0,0,82.85,145a7.4,7.4,0,0,1-.55,2.69,14.86,14.86,0,0,1-9.7,8.94,14,14,0,0,1-12.8-2.88,13.24,13.24,0,0,1-3.9-6.26c-.05-.18-.1-.37-.14-.55a25,25,0,0,0-9,6.8,19.56,19.56,0,0,0-2.6,4.3c-2.61,5.91-2.33,18.11-2.07,30,0,1.47.06,2.93.09,4.38l.42,0h59.27c0-.63,0-1.39,0-2.24h0a2.5,2.5,0,0,1-2.5-2.5V166.3A21.82,21.82,0,0,0,96.63,155.72Zm-9.83,33.15a1.5,1.5,0,0,1-1.5,1.41h-.09a1.5,1.5,0,0,1-1.41-1.59l1.46-24.77a1.52,1.52,0,0,1,1.58-1.41,1.5,1.5,0,0,1,1.41,1.59Z"/><path class="cls-2" d="M166.5,99.28c-1.06-4.14-3.6-8.07-7.44-10a15.76,15.76,0,0,0-7.13-1.42c-2.26-.12-4.6.36-6.84.27l0,.07a9.11,9.11,0,0,1-3-.66c-2.45-1-4.06-3.3-5.95-5.16A14.86,14.86,0,0,0,130,78.68,9.31,9.31,0,0,1,122.85,82h-2.13a1.61,1.61,0,0,0-.25-.37,4,4,0,0,0-.75-.6h-.41a2.87,2.87,0,0,0-1.18,2.31,1.08,1.08,0,0,0,.42,1,.85.85,0,0,0,.67,0v3a15,15,0,0,0,2.6,5.12l.11.15a2.49,2.49,0,0,1,3.32.11,9.79,9.79,0,0,0,6.51,2.86h17.6a7.39,7.39,0,0,1,7.38,7.38v2.56c0,.36,0,1.46,2.46,1.46a2.5,2.5,0,0,1,2.5,2.5v11.79a9.84,9.84,0,0,0,2.95-3.4,15.88,15.88,0,0,0,2-5.89A32.22,32.22,0,0,0,166.5,99.28Z"/><path class="cls-2" d="M155.75,111.4a7,7,0,0,0,.95.77v-.45A8,8,0,0,1,155.75,111.4Z"/><path class="cls-2" d="M46.27,200a4,4,0,0,0,2.18,3.52H64.06a2.49,2.49,0,0,1,1.4.44h5.18l8.26,7.37H109.4V197.45H47.19A3.92,3.92,0,0,0,46.27,200Z"/><path class="cls-2" d="M63.88,68.26H64l14.65-.15h0a2.5,2.5,0,0,1,2.5,2.5v2.21l4-4a2.5,2.5,0,0,1,1.77-.73h6.5a3.92,3.92,0,0,0,3.92-3.92V42.26a3.92,3.92,0,0,0-3.92-3.92H63.78a6.38,6.38,0,0,0-1.34,3.94l.1,22.08A6.38,6.38,0,0,0,63.88,68.26Zm24.23-9.39h-15a1.5,1.5,0,0,1,0-3h15a1.5,1.5,0,0,1,0,3Zm-20-11.81h20a1.5,1.5,0,0,1,0,3h-20a1.5,1.5,0,0,1,0-3Z"/><path class="cls-3" d="M76.87,122.25a1.5,1.5,0,0,0,1.5-1.5V110.31a1.5,1.5,0,0,0-3,0v8.95H73.31a1.5,1.5,0,0,0,0,3Z"/><path class="cls-3" d="M69.16,123.57a6.49,6.49,0,0,1-4.47-4.22,1.5,1.5,0,0,0-2.86.92,9.56,9.56,0,0,0,6.58,6.21,1.5,1.5,0,1,0,.75-2.91Z"/><path class="cls-3" d="M52.95,112.65h0l.65,0c8.55-.23,21.17-4,29.6-10.2l.61-.44c.56-.43,1.1-.87,1.61-1.32a2.5,2.5,0,1,0-3.3-3.76c-7.49,6.57-21,10.7-29.2,10.75a2.5,2.5,0,0,0,0,5Z"/><path class="cls-3" d="M36.72,190.21a2.5,2.5,0,0,0,2.5-2.5V166.3a21.82,21.82,0,0,1,3.29-11.54,22.08,22.08,0,0,1,12.95-9.65q.78-.21,1.59-.37a22,22,0,0,1,4.13-.4h.35a2.5,2.5,0,0,0,2.5-2.52l-.08-9.22a2.42,2.42,0,0,0,0-.26,2.48,2.48,0,0,0-1.21-1.87l-.09-.06a13.38,13.38,0,0,1-7.19-11.93v-1.17a2.51,2.51,0,0,0-2.48-2.51h0a2.5,2.5,0,0,0-2.5,2.49v1.17A18.36,18.36,0,0,0,59,134.07l0,5.36A27,27,0,0,0,34.22,166.3v21.41A2.5,2.5,0,0,0,36.72,190.21Z"/><path class="cls-3" d="M68.28,132.49a2.49,2.49,0,0,0,1.72,4.3l.34,0a18.17,18.17,0,0,0,3.25-.75v5.83s0,.08,0,.12a2.49,2.49,0,0,0,2.49,2.38h1.3a22,22,0,0,1,22,22v21.41a2.5,2.5,0,0,0,2.5,2.5h0a2.5,2.5,0,0,0,2.49-2.5V166.3a27,27,0,0,0-25.76-26.93v-5.94a18.46,18.46,0,0,0,7.65-14.84l0-11.37a2.5,2.5,0,0,0-2.44-2.5h-.06l-.22,0a2.49,2.49,0,0,0-2.28,2.47l0,11.37a13.46,13.46,0,0,1-11.58,13.24A2.48,2.48,0,0,0,68.28,132.49Z"/><path class="cls-3" d="M135.25,105.61a1.5,1.5,0,0,0-1.5,1.5v11.83a1.5,1.5,0,0,0,1.5,1.5h3.56a1.5,1.5,0,0,0,0-3h-2.06V107.11A1.5,1.5,0,0,0,135.25,105.61Z"/><path class="cls-3" d="M141,126.67a7.08,7.08,0,0,0,1.62.18,7,7,0,0,0,6.63-4.23,1.5,1.5,0,0,0-2.73-1.24,4.19,4.19,0,0,1-4.81,2.37,1.5,1.5,0,0,0-.7,2.92Z"/><path class="cls-3" d="M125.25,92.76a2.49,2.49,0,0,0-3.32-.11,2.45,2.45,0,0,0-.22.19,2.5,2.5,0,0,0,.08,3.53,14.82,14.82,0,0,0,10.09,4.24h17.47a2.39,2.39,0,0,1,2.38,2.38v2.56a6.06,6.06,0,0,0,4,5.84,8,8,0,0,0,.95.32v27.62H145.58V135a18.27,18.27,0,0,0,4.16-1,2.5,2.5,0,0,0-1.75-4.68,13.42,13.42,0,0,1-18.12-12.57V104.34a2.5,2.5,0,0,0-5,0v12.37a18.43,18.43,0,0,0,15.71,18.19v4.8c-11.91,1.78-19.13,10.38-22,26.15,0,.07,0,.13,0,.2l-4,40.48a2.5,2.5,0,0,0,2.24,2.73H117a2.5,2.5,0,0,0,2.49-2.25l4-40.38c2.67-14.57,8.87-21.51,20-22.23l1.52,3.17a214.35,214.35,0,0,0-4.43,41.2,2.5,2.5,0,0,0,2.49,2.51h0a2.5,2.5,0,0,0,2.5-2.49,206.4,206.4,0,0,1,4.32-40.17l4.68-4.28h5.14A21.94,21.94,0,0,1,181,160.81a21.66,21.66,0,0,1,.46,7.62l-1.76,19.05a2.5,2.5,0,0,0,5,.46l1.75-19a26.58,26.58,0,0,0-.59-9.35,26.93,26.93,0,0,0-24.13-20.14v-29.9a2.5,2.5,0,0,0-2.5-2.5c-2.46,0-2.46-1.1-2.46-1.46V103a7.39,7.39,0,0,0-7.38-7.38h-17.6A9.79,9.79,0,0,1,125.25,92.76Z"/><path class="cls-3" d="M172.11,113h22.95a9.89,9.89,0,0,0-1.3,4.11l-5.55,70.45a2.53,2.53,0,0,0,2.3,2.69,2.51,2.51,0,0,0,2.69-2.3l5.55-70.43a4.94,4.94,0,0,1,9.85.85l-6.51,75.07-13.54-.21-52.69-.81a8,8,0,1,0,0,16h20.53l8.17,7.19a2.5,2.5,0,0,0,1.64.62l36.76.11h0a2.5,2.5,0,0,0,2.49-2.3l1.4-17.9h0l6.71-77.36a10,10,0,0,0-9.06-10.76h-.35l-.25,0H172.11a2.5,2.5,0,0,0,0,5Zm-5,98.26L159,204.1a2.76,2.76,0,0,0-1.65-.62H135.84a3,3,0,0,1,0-6l4.7.07,61.14.94-.38,4.33a2.48,2.48,0,0,0,0,.55l-.63,8.06-28.34-.09Z"/><path class="cls-3" d="M108.08,187.59a2.5,2.5,0,0,0,2.3,2.69h.2a2.5,2.5,0,0,0,2.49-2.3l5.55-70.43a4.93,4.93,0,0,1,2.58-3.93,2.49,2.49,0,0,0,.35-.24,2.5,2.5,0,0,0-.06-5H99.62a2.5,2.5,0,0,0,0,5h15.11a10,10,0,0,0-1.09,3.75Z"/><path class="cls-3" d="M63.12,208.48l8.17,7.19a2.5,2.5,0,0,0,1.65.62h37.61a2.5,2.5,0,0,0,0-5H73.88l-8.17-7.19a2.76,2.76,0,0,0-1.65-.62H42.58a3,3,0,1,1,0-6h67a2.5,2.5,0,1,0,0-5h-67l-.42,0a8,8,0,0,0,.42,16Z"/><path class="cls-3" d="M165,190.28a1.5,1.5,0,0,0,1.5-1.41l1.46-24.77a1.5,1.5,0,1,0-3-.18l-1.46,24.77a1.5,1.5,0,0,0,1.41,1.59Z"/><path class="cls-3" d="M85.27,163.93l-1.46,24.77a1.5,1.5,0,0,0,1.41,1.59h.09a1.5,1.5,0,0,0,1.5-1.41l1.46-24.77a1.5,1.5,0,0,0-1.41-1.59A1.52,1.52,0,0,0,85.27,163.93Z"/><path class="cls-3" d="M64,73.26h0l12.14-.12v5.72a2.5,2.5,0,0,0,4.27,1.77l7.53-7.53h5.46a8.93,8.93,0,0,0,8.92-8.92V42.26a8.93,8.93,0,0,0-8.92-8.92H63.87a8.92,8.92,0,0,0-8.92,9L55,64.39A8.93,8.93,0,0,0,64,73.26ZM61.09,39.5a3.88,3.88,0,0,1,2.69-1.14h29.6a3.92,3.92,0,0,1,3.92,3.92V64.18a3.92,3.92,0,0,1-3.92,3.92h-6.5a2.5,2.5,0,0,0-1.77.73l-4,4V70.61a2.5,2.5,0,0,0-2.5-2.5h0L64,68.26h-.07A3.92,3.92,0,0,1,60,64.36L60,42.28A3.89,3.89,0,0,1,61.09,39.5Z"/><path class="cls-3" d="M108.28,51.13H123a3.92,3.92,0,0,1,3.92,3.93l-.1,18.1A3.64,3.64,0,0,1,122.85,77h-6.13a2.53,2.53,0,0,0-2.5,2.5v4.37l-6.31-6.31a2.79,2.79,0,0,0-1.77-.73H89.43a2.5,2.5,0,0,0,0,5h15.67L115,91.72A2.5,2.5,0,0,0,119.22,90V82h3.63A9.31,9.31,0,0,0,130,78.68a8.69,8.69,0,0,0,1.76-5.52l.1-18.09a8.92,8.92,0,0,0-8.92-9H108.28a2.5,2.5,0,0,0,0,5Z"/><path class="cls-3" d="M108.69,58.06a1.5,1.5,0,1,0,0,3h9.92a1.5,1.5,0,0,0,0-3Z"/><path class="cls-3" d="M105.69,70h12.92a1.5,1.5,0,0,0,0-3H105.69a1.5,1.5,0,0,0,0,3Z"/></svg>