<svg id="Layer_1" data-name="Layer 1" xmlns="http://www.w3.org/2000/svg" viewBox="0 0 250 250"><defs><style>.cls-1{fill:#308afa;}.cls-2{fill:none;}.cls-3{fill:#1251a2;}</style></defs><title>Wifi Power@2x</title><rect class="cls-1" x="156.42" y="180.58" width="13.08" height="5.42"/><path class="cls-1" d="M168.65,203.4l.22,0,.63-.08v-2.73a2.48,2.48,0,0,1-.63.09h0l-.22,0a2.49,2.49,0,0,1-2.27-2.48V182h-3v21.58h.26C165.31,203.64,167,203.55,168.65,203.4Z"/><path class="cls-2" d="M112.3,95.91a54.59,54.59,0,0,0-77.06,2.83,2.5,2.5,0,1,0,3.66,3.4,49.59,49.59,0,0,1,70-2.58,2.5,2.5,0,1,0,3.4-3.66Z"/><path class="cls-2" d="M38.77,73.13A53.44,53.44,0,0,1,74.83,57.41c-.67,0-1.33,0-2,0a53.81,53.81,0,1,0,2,107.59A53.79,53.79,0,0,1,38.77,73.13Z"/><path class="cls-2" d="M73.82,98.68a37,37,0,0,0-25.89,11.86,2.5,2.5,0,0,0,3.66,3.4,32.21,32.21,0,0,1,45.52-1.67,2.5,2.5,0,0,0,3.4-3.66A37,37,0,0,0,73.82,98.68Z"/><polygon class="cls-2" points="140.46 141.02 140.46 145.08 142.19 145.08 143.46 145.08 143.46 141.02 140.46 141.02"/><path class="cls-2" d="M74.47,116.3a19.45,19.45,0,0,0-13.62,6.24,2.5,2.5,0,1,0,3.66,3.4,14.58,14.58,0,0,1,20.6-.76,2.5,2.5,0,1,0,3.4-3.66A19.47,19.47,0,0,0,74.47,116.3Z"/><circle class="cls-2" cx="75.23" cy="137.08" r="5.48" transform="translate(-4.99 2.86) rotate(-2.11)"/><path class="cls-2" d="M161.19,177h.37l-.18,0Z"/><path class="cls-2" d="M147.69,167.23V150.08h-3v17.15a9.83,9.83,0,0,0,9.82,9.82h3A9.83,9.83,0,0,1,147.69,167.23Z"/><path class="cls-2" d="M176.92,119.31a1.62,1.62,0,0,0-3.25,0V136h3.25Z"/><path class="cls-2" d="M153.62,119.31a1.62,1.62,0,0,0-3.25,0V136h3.25Z"/><polygon class="cls-1" points="185.1 145.08 186.83 145.08 186.83 141.02 182.42 141.02 179.42 141.02 174.17 141.02 171.17 141.02 159.12 141.02 156.12 141.02 150.87 141.02 147.87 141.02 143.46 141.02 143.46 145.08 145.19 145.08 185.1 145.08"/><path class="cls-1" d="M171.87,178h.91a9.83,9.83,0,0,0,9.82-9.82V150.08H147.69v18.15a9.83,9.83,0,0,0,9.82,9.82h.68l.18,0,.18,0h2.63l.18,0,.18,0h10.31Z"/><path class="cls-1" d="M110.9,73.13A53.44,53.44,0,0,0,74.83,57.41a53.81,53.81,0,0,0,0,107.54A53.81,53.81,0,0,0,110.9,73.13ZM75.43,142.56a5.48,5.48,0,1,1,5.27-5.68A5.48,5.48,0,0,1,75.43,142.56Zm13.21-17.5a2.5,2.5,0,0,1-3.53.13,14.58,14.58,0,0,0-20.6.76,2.5,2.5,0,1,1-3.66-3.4,19.58,19.58,0,0,1,27.67-1A2.5,2.5,0,0,1,88.64,125.05Zm12-12.92a2.5,2.5,0,0,1-3.53.13,32.21,32.21,0,0,0-45.52,1.67,2.5,2.5,0,0,1-3.66-3.4,37.21,37.21,0,0,1,52.58-1.93A2.5,2.5,0,0,1,100.64,112.14Zm8.26-12.56a49.59,49.59,0,0,0-70,2.58,2.5,2.5,0,1,1-3.66-3.4,54.59,54.59,0,0,1,77.06-2.83,2.5,2.5,0,1,1-3.4,3.66Z"/><path class="cls-3" d="M189.33,136h-7.41V119.31a6.62,6.62,0,0,0-13.25,0V136H158.62V119.31a6.62,6.62,0,0,0-13.25,0V136H138a2.5,2.5,0,0,0-2.5,2.5v9.06a2.5,2.5,0,0,0,2.5,2.5h1.73v17.15A14.84,14.84,0,0,0,154.51,182h1.36v16.2a2.5,2.5,0,0,0,2.5,2.5h0a2.5,2.5,0,0,0,2.5-2.5V182h5.5v16.11a2.49,2.49,0,0,0,2.27,2.48l.22,0h0a2.54,2.54,0,0,0,2.5-2.5V182s2.57,0,3.13-.11a14.83,14.83,0,0,0,13.1-14.71V150.08h1.73a2.5,2.5,0,0,0,2.5-2.5v-9.06A2.5,2.5,0,0,0,189.33,136Zm-15.66-16.71a1.62,1.62,0,0,1,3.25,0V136h-3.25Zm-23.3,0a1.62,1.62,0,0,1,3.25,0V136h-3.25Zm32.23,47.92a9.83,9.83,0,0,1-9.82,9.82H154.51a9.83,9.83,0,0,1-9.82-9.82V150.08H182.6Zm4.23-22.15H140.46V141h46.37Z"/><path class="cls-3" d="M205.22,108.21a58.55,58.55,0,0,0-69-10.46,2.5,2.5,0,0,0,2.33,4.42,53.84,53.84,0,1,1,36,100.36q-2.47.5-5,.78l-.63.08-.22,0c-1.66.15-3.34.24-5,.24h-.26q-2.51,0-5-.25a53.88,53.88,0,0,1-46.45-38.55,2.5,2.5,0,0,0-4.8,1.39,58.84,58.84,0,1,0,98.1-58Z"/><path class="cls-3" d="M131.67,111.2a58.78,58.78,0,1,0-17.23,41.6A58.44,58.44,0,0,0,131.67,111.2ZM74.83,165a53.81,53.81,0,1,1-2-107.59c.67,0,1.34,0,2,0a53.81,53.81,0,0,1,0,107.54Z"/></svg>