<?xml version="1.0" encoding="UTF-8"?>
<svg width="170px" height="41px" viewBox="0 0 170 41" version="1.1" xmlns="http://www.w3.org/2000/svg" xmlns:xlink="http://www.w3.org/1999/xlink">
    <!-- Generator: Sketch 51.2 (57519) - http://www.bohemiancoding.com/sketch -->
    <title>Group</title>
    <desc>Created with Sketch.</desc>
    <defs></defs>
    <g id="Symbols" stroke="none" stroke-width="1" fill="none" fill-rule="evenodd">
        <g id="Old-Logo" fill="#4D4D4D">
            <g id="Group" transform="translate(84.662338, 20.500000) rotate(-360.000000) translate(-84.662338, -20.500000) ">
                <polygon id="Fill-1" points="34.2955948 2.10138312 25.0476987 2.10138312 20.4242831 10.1102273 25.0476987 18.1190714 34.2955948 18.1190714 38.9195429 10.1102273"></polygon>
                <path d="M23.8345247,-0.000212987013 L17.9976156,10.1097481 L23.8345247,20.2202416 L35.5088753,20.2202416 L41.3457844,10.1097481 L35.5088753,-0.000212987013 L23.8345247,-0.000212987013 Z M19.3458234,10.1097481 L24.5086286,1.16748831 L34.8353039,1.16748831 L39.9975766,10.1097481 L34.8353039,19.0525403 L24.5086286,19.0525403 L19.3458234,10.1097481 Z" id="Fill-2"></path>
                <path d="M137.201814,23.5492818 L137.201814,21.0355026 L143.170243,21.0355026 C144.082892,21.0355026 144.794801,20.7767234 145.30597,20.2586325 C145.817139,19.741074 146.072723,19.0595156 146.072723,18.2144896 C146.072723,17.3561519 145.817139,16.675126 145.30597,16.1708792 C144.794801,15.6666325 144.082892,15.4142429 143.170243,15.4142429 L135.300905,15.4142429 L135.300905,27.6780351 L132.725892,27.6780351 L132.725892,12.8184636 L143.170243,12.8184636 C144.028581,12.8184636 144.794801,12.9446584 145.469438,13.1965156 C146.144074,13.4489052 146.712749,13.8029961 147.175996,14.2593208 C147.639243,14.7161779 147.993866,15.2710091 148.239334,15.9254117 C148.484269,16.5792818 148.606736,17.3151519 148.606736,18.1330221 C148.606736,18.9370481 148.484269,19.6691909 148.239334,20.3299831 C147.993866,20.9913078 147.639243,21.5599831 147.175996,22.0365416 C146.712749,22.5141649 146.144074,22.8847623 145.469438,23.1509961 C144.794801,23.4161649 144.028581,23.5492818 143.170243,23.5492818 L137.201814,23.5492818 Z" id="Fill-3"></path>
                <polygon id="Fill-5" points="151.975286 12.8185701 149.379506 12.8185701 149.379506 27.3059468 151.975286 22.9839078"></polygon>
                <g id="Group-14" transform="translate(116.610390, 12.197873)">
                    <path d="M49.5849208,15.4801091 L47.3570766,11.7395247 L40.3258429,11.7395247 L41.5526481,9.63468052 L46.1100377,9.63468052 L42.7991545,4.07465455 L36.0543883,15.4801091 L33.090674,15.4801091 L41.6341156,1.25417403 C41.783739,0.995394805 41.9610506,0.79145974 42.1655182,0.641303896 C42.3699857,0.491148052 42.6149208,0.41607013 42.9013883,0.41607013 C43.1873234,0.41607013 43.4290636,0.491148052 43.6271416,0.641303896 C43.8241545,0.79145974 43.997739,0.995394805 44.1484273,1.25417403 L52.7121026,15.4801091 L49.5849208,15.4801091 Z" id="Fill-6"></path>
                    <path d="M13.7680662,3.90405195 L13.5465597,3.97433766 L12.3671442,4.07923377 L12.0338195,4.61116883 L11.7920792,4.53449351 L10.8538714,3.6884026 L10.7175597,3.24805195 L10.5349234,2.77894805 L9.94494935,2.24967532 L9.24901429,2.11336364 L9.23304026,2.43177922 L9.91513117,3.09736364 L10.2484558,3.49032468 L9.8735987,3.68627273 L9.56796234,3.59628571 L9.11057273,3.40566234 L9.12601429,3.03666234 L8.52592338,2.7895974 L8.32678052,3.65698701 L7.72136494,3.79436364 L7.78153377,4.27837662 L8.56958571,4.43012987 L8.7058974,3.65645455 L9.35657273,3.75283117 L9.65901429,3.93014286 L10.1446247,3.93014286 L10.4768844,4.59519481 L11.3575857,5.48867532 L11.2926247,5.83584416 L10.5828455,5.74532468 L9.35550779,6.36511688 L8.47214416,7.42472727 L8.35713117,7.89436364 L8.04031299,7.89436364 L7.44927403,7.62174026 L6.87527403,7.89436364 L7.01797532,8.49977922 L7.2677026,8.21171429 L7.70698831,8.19787013 L7.67663766,8.74205195 L8.04031299,8.84854545 L8.40345584,9.25641558 L8.99662468,9.08975325 L9.67445584,9.19677922 L10.4609104,9.40816883 L10.8538714,9.45449351 L11.5205208,10.2105974 L12.8064299,10.9667013 L11.9747156,12.5555844 L11.0966766,12.963987 L10.7638844,13.8718442 L9.49341688,14.7200649 L9.35817013,15.2088701 C12.6056896,14.4266753 15.0214948,11.5098182 15.0214948,8.02162338 C15.0204299,6.49823377 14.5587805,5.08080519 13.7680662,3.90405195" id="Fill-8"></path>
                    <path d="M8.47171818,11.890426 L7.93286104,10.8909844 L8.42752338,9.86012727 L7.93286104,9.7121013 L7.37696494,9.15407532 L6.14643247,8.87825714 L5.7374974,8.02311429 L5.7374974,8.53055584 L5.55752338,8.53055584 L4.49684805,7.09289351 L4.49684805,5.91134805 L3.71944545,4.64727013 L2.48518571,4.86717922 L1.65347143,4.86717922 L1.23495195,4.59295844 L1.76901688,4.16964675 L1.23654935,4.29264675 C0.594393506,5.3889974 0.220601299,6.66052987 0.220601299,8.02258182 C0.220601299,12.1092701 3.53361429,15.4238805 7.62083506,15.4238805 C7.93552338,15.4238805 8.24435455,15.3961922 8.54945844,15.3594519 L8.47225065,14.4627766 C8.47225065,14.4627766 8.81196494,13.1310753 8.81196494,13.0858156 C8.81143247,13.0400234 8.47171818,11.890426 8.47171818,11.890426" id="Fill-10"></path>
                    <path d="M2.97042338,3.00732338 L4.28508571,2.82415455 L4.89103377,2.49189481 L5.57312468,2.68837532 L6.66202078,2.62820649 L7.03528052,2.04142727 L7.57946234,2.13088182 L8.90157922,2.00681688 L9.26578701,1.60533636 L9.77908571,1.26242727 L10.5059039,1.37158312 L10.7705403,1.33164805 C9.8136961,0.881180519 8.74876104,0.620803896 7.62046234,0.620803896 C5.32286494,0.620803896 3.26913766,1.66763506 1.91294286,3.31189481 L1.91667013,3.31189481 L2.97042338,3.00732338 Z M7.93302078,1.35667403 L8.68912468,0.940816883 L9.1742026,1.22089481 L8.47187792,1.75602468 L7.80096883,1.82311558 L7.49852727,1.62716753 L7.93302078,1.35667403 Z M5.69452727,1.41737532 L6.02785195,1.55634935 L6.46500779,1.41737532 L6.70302078,1.83003766 L5.69452727,2.09467403 L5.20944935,1.81086883 C5.20891688,1.81086883 5.68334545,1.50576494 5.69452727,1.41737532 Z" id="Fill-12"></path>
                </g>
                <polygon id="Fill-15" points="34.2955948 22.832261 25.0476987 22.832261 20.4242831 30.8411052 25.0476987 38.8499494 34.2955948 38.8499494 38.9195429 30.8411052"></polygon>
                <path d="M23.8345247,20.7308779 L17.9976156,30.840839 L23.8345247,40.9513325 L35.5088753,40.9513325 L41.3457844,30.840839 L35.5088753,20.7308779 L23.8345247,20.7308779 Z M19.3458234,30.840839 L24.5086286,21.8980468 L34.8353039,21.8980468 L39.9975766,30.840839 L34.8353039,39.7836312 L24.5086286,39.7836312 L19.3458234,30.840839 Z" id="Fill-16"></path>
                <polygon id="Fill-17" points="16.297926 12.4668221 7.05002987 12.4668221 2.42661429 20.4756662 7.05002987 28.4845104 16.297926 28.4845104 20.921874 20.4756662"></polygon>
                <path d="M5.83690909,10.3653325 L0,20.4752935 L5.83690909,30.585787 L17.5112597,30.585787 L23.3481688,20.4752935 L17.5112597,10.3653325 L5.83690909,10.3653325 Z M1.34820779,20.4752935 L6.51101299,11.5325013 L16.8376883,11.5325013 L21.999961,20.4752935 L16.8376883,29.4180857 L6.51101299,29.4180857 L1.34820779,20.4752935 Z" id="Fill-18"></path>
                <g id="Group-23" transform="translate(37.805195, 12.730340)">
                    <path d="M7.47813377,12.3518623 C6.81041948,12.3518623 6.19382208,12.2293948 5.62834156,11.9839273 C5.06286104,11.7384597 4.57565325,11.4014078 4.16671818,10.972239 C3.75831558,10.5430701 3.43777013,10.0287065 3.20614675,9.42914805 C2.97452338,8.82958961 2.85897792,8.18210909 2.85897792,7.48723896 C2.85897792,6.77905714 2.97452338,6.13157662 3.20614675,5.54532987 C3.43777013,4.95961558 3.75831558,4.45536883 4.16671818,4.03312208 C4.57565325,3.61087532 5.06286104,3.28021299 5.62834156,3.04166753 C6.19382208,2.80365455 6.81041948,2.68384935 7.47813377,2.68384935 L15.5311727,2.68384935 L15.5311727,0.0880701299 L7.47813377,0.0880701299 C6.44248442,0.0880701299 5.48510779,0.262187013 4.60653636,0.609355844 C3.72743247,0.957057143 2.96440649,1.44745974 2.31745844,2.0810961 C1.66997792,2.71473247 1.16573117,3.48095325 0.804718182,4.38029091 C0.443705195,5.27962857 0.263198701,6.27481039 0.263198701,7.36477143 C0.263198701,8.44142078 0.443705195,9.44299221 0.804718182,10.3689532 C1.16573117,11.2959792 1.66997792,12.0962779 2.31745844,12.7709143 C2.96440649,13.4455506 3.72743247,13.9769532 4.60653636,14.3651221 C5.48510779,14.7532909 6.44248442,14.9476416 7.47813377,14.9476416 L18.9666532,14.9476416 L16.4353026,12.4162909 L7.47813377,12.3518623 Z" id="Fill-19"></path>
                    <path d="M29.7603026,10.4305597 C30.7277961,10.0626247 31.4801727,9.45987143 32.0190299,8.62176753 C32.5568221,7.78366364 32.8262506,6.74481948 32.8262506,5.5047026 C32.8262506,4.67352078 32.7037831,3.92433896 32.4583156,3.25609221 C32.2128481,2.58891039 31.8582247,2.0197026 31.3955104,1.54953377 C30.9322636,1.07936494 30.3662506,0.718884416 29.6990688,0.466494805 C29.0313545,0.214637662 28.2747182,0.0884428571 27.4302247,0.0884428571 L16.7606403,0.0884428571 L16.7606403,12.0998455 L19.3361857,14.6753909 L19.3361857,2.68422208 L27.4302247,2.68422208 C28.3295623,2.68422208 29.0276273,2.91904026 29.5254844,3.38920909 C30.0228091,3.85937792 30.2714714,4.57820909 30.2714714,5.5457026 C30.2714714,6.5131961 30.032926,7.25226104 29.5558351,7.76342987 C29.0787442,8.27406623 28.3705623,8.52965065 27.4302247,8.52965065 L21.2370948,8.52965065 L21.2370948,10.8187286 L26.7965883,10.8187286 L30.5574065,14.9474818 L34.2367571,14.9474818 L29.7603026,10.4305597 Z" id="Fill-21"></path>
                </g>
                <polygon id="Fill-24" points="78.5450312 19.6658364 72.7608364 12.8188364 69.2657195 12.8188364 77.1552909 22.0369143 77.1552909 27.6778753 79.7510701 27.6778753 79.7510701 22.0369143 85.0331481 15.8810571 81.7536805 15.8810571"></polygon>
                <polygon id="Fill-25" points="84.3498325 12.8185701 91.147313 12.8185701 91.147313 15.4143494 82.1491442 15.4143494"></polygon>
                <g id="Group-30" transform="translate(88.389610, 12.730340)">
                    <path d="M14.5629338,0.0882298701 L14.5629338,0.846463636 C14.7024403,0.956684416 14.8355571,1.07329481 14.960687,1.19629481 C15.3850636,1.61534675 15.7247779,2.11693117 15.9824922,2.68400909 L20.2038948,2.68400909 L20.2038948,14.9478013 L22.799674,14.9478013 L22.799674,2.68400909 L28.4411675,2.68400909 L28.4411675,0.0882298701 L14.5629338,0.0882298701 Z" id="Fill-26"></path>
                    <path d="M15.6959714,3.19496494 C15.4505039,2.54109481 15.096413,1.98573117 14.6331662,1.52940649 C14.169387,1.07308182 13.6007117,0.718458442 12.9266078,0.466601299 C12.2519714,0.214211688 11.4852182,0.0880168831 10.6268805,0.0880168831 L0.18252987,0.0880168831 L0.18252987,2.6837961 L2.75807532,2.6837961 L3.12814026,2.6837961 L10.6268805,2.6837961 C11.5395299,2.6837961 12.2519714,2.93618571 12.7626078,3.44043247 C13.2737766,3.94467922 13.529361,4.62570519 13.529361,5.48404286 C13.529361,6.32906883 13.2737766,7.01062727 12.7626078,7.52818571 C12.2519714,8.04627662 11.5395299,8.30505584 10.6268805,8.30505584 L4.65845195,8.30505584 L4.65845195,10.8188351 L10.6268805,10.8188351 C11.4852182,10.8188351 12.2519714,10.6862506 12.9266078,10.4205494 C13.6007117,10.1548481 14.169387,9.78371818 14.6331662,9.30662727 C15.096413,8.82953636 15.4505039,8.26086104 15.6959714,7.59953636 C15.941439,6.93874416 16.0639065,6.2066013 16.0639065,5.40257532 C16.0639065,4.58470519 15.941439,3.84936753 15.6959714,3.19496494" id="Fill-28"></path>
                </g>
                <polygon id="Fill-31" points="88.5722468 27.6777688 91.1477922 27.6777688 91.1477922 15.8809506 88.5722468 15.8809506"></polygon>
            </g>
        </g>
    </g>
</svg>