<svg width="90" height="47" xmlns="http://www.w3.org/2000/svg"><path d="M84.913 33.328h1.882l.154 1.553h.02c.48-.711 1.653-1.622 3.018-1.698v2.026c-1.988.393-2.9 1.728-2.9 2.94v4.827h-2.174v-9.648zM74.906 38.18v-.04c0-2.966 1.426-5.103 4.377-5.103 2.735 0 4.005 1.603 4.005 4.965 0 .356-.024.848-.062 1.21h-6.04c.156 1.36.939 2.17 2.545 2.17 1.016 0 1.97-.095 2.855-.213v1.843c-.994.158-1.838.252-2.912.252-3.127 0-4.768-1.582-4.768-5.084zm2.247-.608h3.927c0-1.51-.39-2.702-1.856-2.702-1.524 0-2.032 1.272-2.071 2.702zm-12.206-4.245h1.892s.088.958.127 1.302h.025c.524-.831 1.624-1.592 2.955-1.592 2.248 0 3.364 1.212 3.364 3.67v6.268h-2.174V37.16c0-1.568-.597-2.183-1.769-2.1-1.062.076-2.246 1.305-2.246 2.84v5.075h-2.174v-9.648zm-10.245 0h1.892s.088.958.127 1.302h.025c.524-.831 1.625-1.592 2.955-1.592 2.248 0 3.364 1.212 3.364 3.67v6.268H60.89V37.16c0-1.568-.597-2.183-1.769-2.1-1.062.076-2.246 1.305-2.246 2.84v5.075h-2.174v-9.648zm-8.563-.187c.944-.079 1.969-.103 2.958-.103 2.33 0 3.721.912 3.721 3.49v6.448h-1.955l-.097-.965h-.025c-.67.73-1.644 1.158-2.89 1.158-1.652 0-2.965-1.083-2.965-3.229 0-1.996 1.644-3.854 5.758-2.97v-.58c0-1.151-.666-1.472-1.978-1.472-.805 0-1.488.055-2.527.145v-1.922zm4.505 5.356c-1.743-.45-3.486.102-3.486 1.466 0 .905.593 1.436 1.477 1.397a3.37 3.37 0 0 0 2.01-.833v-2.03zm-7.396-9.028v13.507h-2.174V29.724l2.174-.255zm-12.466 3.859h1.836l.118 1.045h.035c.638-.781 1.705-1.335 2.936-1.335 2.443 0 3.752 1.84 3.752 4.966v.1c0 3.007-1.31 5.163-4.045 5.163-.958 0-1.896-.376-2.463-.81v4.233h-2.169V33.328zm2.17 2.825v4.443c.449.356 1.172.673 1.875.673 1.837 0 2.365-1.444 2.365-3.146 0-1.543-.293-3.039-2.071-3.039-.86 0-1.692.512-2.17 1.07zm-8.809 1.999c.006 2.108.908 3.232 2.704 3.232.758 0 1.53-.095 2.23-.19v1.782c-.576.116-1.528.241-2.505.241-2.678 0-4.692-1.492-4.7-5.065.008-3.573 2.022-5.065 4.7-5.065.977 0 1.93.124 2.504.24v1.783c-.7-.095-1.47-.19-2.23-.19-1.795 0-2.697 1.124-2.703 3.232zm-12.612.05v-.1c0-3.224 1.466-5.064 4.494-5.064 3.01 0 4.475 1.84 4.475 5.064v.1c0 3.224-1.466 5.063-4.475 5.063-3.028 0-4.494-1.84-4.494-5.064zm4.49-3.33c-1.54 0-2.25 1.057-2.25 3.265 0 2.21.71 3.247 2.25 3.247 1.538 0 2.229-1.034 2.229-3.247 0-2.212-.69-3.266-2.23-3.266zM0 42.975V29.469h3.351c4.67 0 6.843 1.42 6.843 6.753 0 5.334-2.173 6.754-6.843 6.754H0zm7.698-6.754c0-3.037-.609-4.569-3.827-4.569H2.379v9.138h1.492c3.218 0 3.827-1.532 3.827-4.569zm40.82-21.324l4.169 6.981-4.27 3.14-4.282-5.039c.656-1.628 2.501-3.907 4.384-5.082zM37.897 25.553l-5.877-3.826c4.45-8.42 12.764-14.416 22.535-15.533l1.637 5.105c-8.054 1.606-14.776 6.988-18.295 14.254zm.902-16.512L39.54.1h5.28l.67 8.085c-3.029 1.051-4.81 1.891-6.851 3.162a21.736 21.736 0 0 0-4.103 3.285l-5.978-2.555 1.63-5.09 8.61 2.053z" fill="#00BFA5" fill-rule="nonzero"/></svg>