<svg width="90" height="25" xmlns="http://www.w3.org/2000/svg"><g fill="#35ACF5" fill-rule="nonzero"><path d="M38.93 3.789h10.968v3.307h-7.274v3.76h5.532v3.209h-5.532v6.32H38.93v-16.6.004zm12.865 0h3.527v16.596h-3.527V3.787v.002zm12.017 13.885a2.53 2.53 0 0 0 2.045-.972c.237-.3.416-.642.525-1.008.115-.373.172-.76.172-1.157 0-.392-.057-.782-.172-1.158a2.914 2.914 0 0 0-.525-.996 2.547 2.547 0 0 0-2.044-.956c-.44 0-.837.085-1.189.26a2.51 2.51 0 0 0-.863.696 3.22 3.22 0 0 0-.526.996 3.662 3.662 0 0 0-.184 1.156c0 .398.061.784.184 1.157.12.375.296.708.523 1.008.23.298.519.534.868.708.352.175.749.26 1.19.26v.005l-.004.001zm-6.167-3.135c0-.865.15-1.673.452-2.428a6.192 6.192 0 0 1 1.261-1.979 5.811 5.811 0 0 1 1.947-1.33c.76-.323 1.596-.485 2.51-.485.914 0 1.745.16 2.496.484a5.82 5.82 0 0 1 1.934 1.326 6.113 6.113 0 0 1 1.26 1.98c.302.753.452 1.562.452 2.426a6.442 6.442 0 0 1-.454 2.424 6.08 6.08 0 0 1-1.259 1.98 6.007 6.007 0 0 1-1.93 1.341c-.75.333-1.582.5-2.496.5-.914 0-1.75-.167-2.511-.5a5.953 5.953 0 0 1-1.947-1.344 6.16 6.16 0 0 1-1.256-1.979 6.519 6.519 0 0 1-.45-2.427l-.005.006-.004.005zm13.144-5.825h3.623l2.006 7.49 2.227-7.49h2.815l2.25 7.49 2.01-7.49h3.55l-3.943 11.671h-3.181l-2.156-6.52-2.127 6.52H74.73L70.788 8.714h.001z"/><path d="M10.691.057c.421-.04.844-.057 1.266-.052 6.53 0 11.774 5.334 11.823 12.042-.044 2.076-1.448 3.727-3.36 3.727-1.93 0-3.6-1.38-3.6-3.73 0-2.69-2.295-4.815-5.054-4.815-2.756 0-4.74 2.304-4.777 5.067 0 4.838 2.752 9.388 6.593 11.416.327.209.455.23.753.398a9.78 9.78 0 0 1-2.38.323c-6.582 0-11.92-5.39-11.92-12.138C.036 6.035 4.662.714 10.69.057h.002z" opacity=".7"/><path d="M17.858.263c4.458 1.744 7.394 6.868 7.433 12.029-.06 2.88-2.393 4.966-4.866 4.966-2.47 0-5.032-1.77-5.032-4.968 0-2.134-1.61-3.584-3.62-3.584-1.895 0-3.34 1.556-3.34 3.584 0 1.76.34 2.753.51 3.479.168.727.84 2.081.855 2.114.063.128.702 1.31 1.514 2.296.533.63 1.128 1.206 1.776 1.719.066.052.586.448.785.583.073.05 1.36.875 2.63 1.288 1.273.41 2.345.65 3.757.65 6.565 0 11.955-5.38 11.955-12.127C32.217 5.544 26.99.015 20.326.015c-.71 0-1.792.125-2.47.247h.002z" opacity=".4"/></g></svg>