<svg width="80" height="27" xmlns="http://www.w3.org/2000/svg"><g fill-rule="nonzero" fill="none"><path fill="#A6AAAB" d="M65.65 0l8.514.02.486 5.463L77.522.02h2.103L74.994 8.03l-1.78.02L72.1.246l.226 1.417-2.875.02-1.558 6.346-1.962.02 1.497-6.345-2.245.041z"/><path d="M.121 11.356l.971-4.805 2.71.062C4.626 1.383 8.037-.622 13.856.165l-.89 4.785-2.184-.041c-1.082.042-1.66.642-1.82 1.704l2.83-.02-.89 4.743-2.891.04-2.933 15.155-5.077.02 2.892-15.215-2.77.02zm13.334-4.97h5.34L16.75 17.064c-.404 2.259-.829 4.764 1.82 5.236a3.812 3.812 0 0 0 2.207-.339c2.157-1.026 2.682-3.196 3.118-5.375l2.038-10.179 5.117-.02-3.924 20.02-4.692.062.202-.986c-3.12 2.09-6.916 1.81-9.18.292-2.2-1.575-2.701-4.332-2.15-7.822l2.148-11.567zm15.408 20.086l5.016-.021.304-1.622c3.08 3.381 10.126 2.265 12.58.04-1.352-1.406-1.925-3.076-2.144-4.866-1.746 2.314-5.171 2.594-6.937 1.212-1.659-1.197-2.089-3.583-1.657-5.65.39-1.867 1.597-3.52 3.361-4.239 2.088-.85 4.591-.306 5.82 1.347 2.068 3.415.405 6.257 1.852 9.317.86 1.821 2.56 3.367 4.366 4.158 2.175.95 4.831 1.134 7.29.408 2.888-.852 5.261-2.962 6.57-5.698 1.558-3.255 1.668-7.272.033-10.292-2.706-5-10.063-6.22-14.61-2.678 1.145 1.44 1.66 3.085 2.023 4.826 1.888-2.533 5.535-2.232 7.24-.698 1.464 1.308 1.872 4.367.774 6.775-.85 1.866-2.403 2.877-4.366 3.185-3.455.543-5.301-2.28-5.469-5.217-.039-2.93-.271-5.041-1.337-6.747-.733-1.174-1.919-2.243-3.133-2.877-2.629-1.371-6.325-1.471-8.879.137L38.915.208 33.88.188l-5.016 26.284z" fill="#F5891D"/></g></svg>