<svg width="79" height="57" xmlns="http://www.w3.org/2000/svg"><g fill="#38444F" fill-rule="evenodd"><path d="M52.296 48.659c.197-.579.271-1.308.271-2.516s-.074-1.912-.27-2.516c-.395-1.207-1.306-1.811-2.611-1.811-1.306 0-2.192.629-2.586 1.811-.197.654-.272 1.434-.272 2.516 0 1.107.075 1.887.272 2.516.394 1.182 1.28 1.836 2.586 1.836 1.305 0 2.216-.629 2.61-1.836zm.517 3.522c-.147 0-.246-.1-.246-.252v-1.157h-.024c-.567.956-1.577 1.685-3.35 1.685-2.044 0-3.473-.98-4.064-2.893-.32-.956-.418-1.911-.418-3.421 0-1.484.098-2.44.418-3.396.591-1.912 2.02-2.894 4.064-2.894 1.773 0 2.783.705 3.35 1.66h.024v-6.188c0-.15.099-.252.246-.252h1.577c.147 0 .246.101.246.252V51.93c0 .151-.099.252-.246.252h-1.577zm11.97-3.9v-1.333c0-.1-.049-.151-.147-.151h-2.364c-2.045 0-2.931.604-2.931 1.962 0 1.233.886 1.887 2.463 1.887 1.847 0 2.98-.88 2.98-2.365zm.296 3.9c-.148 0-.246-.1-.246-.252v-1.056h-.025c-.541.905-1.7 1.585-3.497 1.585-2.241 0-3.965-1.183-3.965-3.623 0-2.541 1.724-3.724 4.605-3.724h2.685c.098 0 .148-.05.148-.15v-.881c0-1.66-.64-2.365-2.833-2.365-1.33 0-2.167.352-2.857.856-.123.1-.27.1-.344-.026l-.666-1.157c-.073-.15-.049-.251.05-.352.887-.704 2.266-1.182 4.014-1.182 3.35 0 4.63 1.132 4.63 4.1v7.975c0 .151-.098.252-.246.252H65.08zm4.902 4.528c-.148 0-.246-.1-.246-.251v-1.46c0-.15.098-.251.246-.251h.444c.96 0 1.477-.428 1.994-1.812l.395-1.106-4.335-11.447c-.05-.151.024-.252.197-.252H70.4c.148 0 .246.076.295.252l3.104 8.704h.049l2.98-8.704c.05-.176.148-.252.296-.252h1.675c.147 0 .246.1.196.252l-4.654 12.73c-1.035 2.842-1.946 3.597-3.72 3.597h-.64zM10.18 40.181c0-1.861-1.207-3.019-3.276-3.019H3.161c-.099 0-.148.05-.148.151v5.736c0 .1.05.151.148.151h3.743c2.07 0 3.276-1.157 3.276-3.019zm-9.113 12c-.147 0-.246-.1-.246-.251V35.326c0-.15.099-.252.246-.252h5.96c3.227 0 5.32 2.013 5.32 5.107 0 3.095-2.093 5.107-5.32 5.107H3.162c-.099 0-.148.05-.148.151v6.49c0 .152-.098.252-.246.252h-1.7zm16.38.126c-2.07 0-2.882-1.006-2.882-3.17v-13.81c0-.152.098-.253.246-.253h1.576c.148 0 .247.101.247.252v13.686c0 1.006.37 1.333 1.182 1.333h.468c.147 0 .246.1.246.252v1.459c0 .15-.099.251-.246.251h-.837zm10.098-4.025V46.95c0-.1-.05-.151-.148-.151h-2.364c-2.045 0-2.931.604-2.931 1.962 0 1.233.886 1.887 2.463 1.887 1.847 0 2.98-.88 2.98-2.365zm.295 3.9c-.148 0-.246-.101-.246-.252v-1.057h-.025c-.541.906-1.7 1.585-3.497 1.585-2.241 0-3.965-1.182-3.965-3.622 0-2.541 1.724-3.724 4.605-3.724h2.685c.098 0 .148-.05.148-.15v-.881c0-1.66-.64-2.365-2.833-2.365-1.33 0-2.167.352-2.857.855-.123.101-.27.101-.344-.025l-.666-1.157c-.073-.151-.049-.252.05-.352.887-.705 2.266-1.183 4.014-1.183 3.35 0 4.63 1.132 4.63 4.101v7.975c0 .15-.098.252-.246.252H27.84zm12.562 0c-.148 0-.247-.101-.247-.252v-7.044c0-1.937-.862-3.07-2.635-3.07-1.6 0-2.71 1.158-2.71 2.944v7.17c0 .151-.098.252-.245.252h-1.577c-.148 0-.246-.101-.246-.252V40.383c0-.151.098-.252.246-.252h1.577c.147 0 .246.1.246.252v1.107h.024c.567-.931 1.7-1.636 3.3-1.636 2.562 0 4.09 1.787 4.09 4.529v7.547c0 .151-.1.252-.247.252h-1.576zM49.945 11.84a11.713 11.713 0 0 0-3.858-6.456C41.057 1.073 33.924 1.925 29.9 6.823L15.287 24.612c-.948 1.154-.874 2.438.177 3.34 1.052.901 2.303.752 3.251-.402l8.75-10.651 5.823-7.088.04-.05c.08-.096.16-.19.243-.281l.041-.044c2.67-2.904 6.871-2.956 9.63-.591l.048.028c3.242 2.818 3.07 7.331.79 10.105-.079.097-.27.31-.284.325-2.67 2.904-6.807 2.967-9.677.563-.6-.52-1.082-1.1-1.456-1.715a1.232 1.232 0 0 0-2.016-.146l-1.874 2.287a11.798 11.798 0 0 0 2.55 3.064c5.03 4.31 12.163 3.458 16.186-1.44 0 0 3.215-3.808 2.435-10.076"/><path d="M49.566 11.636l8.75-10.65c.948-1.155 2.198-1.303 3.25-.402 1.052.902 1.126 2.186.178 3.34L47.124 21.71c-4.023 4.897-11.157 5.75-16.187 1.439a11.806 11.806 0 0 1-2.55-3.064l1.874-2.287a1.232 1.232 0 0 1 2.017.147 7.33 7.33 0 0 0 1.463 1.716c2.848 2.394 6.995 2.342 9.666-.562.003-.004.226-.255.284-.326l5.875-7.138z" opacity=".6"/></g></svg>