<svg width="36" height="37" xmlns="http://www.w3.org/2000/svg"><g fill="none"><path d="M18 .255C8.059.255 0 8.292 0 18.207c0 9.914 8.059 17.952 18 17.952 9.94 0 18-8.038 18-17.952C36 8.292 27.94.255 18 .255zm0 10.472c4.142 0 7.5 3.349 7.5 7.48 0 4.13-3.358 7.48-7.5 7.48-4.142 0-7.5-3.35-7.5-7.48 0-4.131 3.358-7.48 7.5-7.48z" fill="#ECF0F1"/><path d="M.14 15.963C.048 16.71 0 17.459 0 18.207c0 9.874 8.059 17.952 18 17.952 9.94 0 18-8.078 18-17.952 0-.748-.048-1.496-.141-2.244C34.745 24.789 27.174 31.67 18 31.67c-9.174 0-16.744-6.882-17.859-15.708z" fill="#BDC3C7"/><path d="M18 6.239c-4.142 0-7.5 3.349-7.5 7.48 0 .79.147 1.529.375 2.244.963-3.023 3.775-5.236 7.125-5.236s6.162 2.213 7.125 5.236c.228-.715.375-1.454.375-2.244 0-4.131-3.358-7.48-7.5-7.48z" fill="#BDC3C7"/><path d="M30.726 5.49c-1.756-1.795-3.767-3.14-5.932-3.889l-3.979 9.724c.903.3 1.754.748 2.486 1.496.734.748 1.259 1.646 1.625 2.543l9.745-4.039c-.879-2.094-2.187-4.04-3.945-5.834zM11.203 1.602c-2.166.748-4.175 2.094-5.932 3.89-1.758 1.795-3.066 3.74-3.945 5.834l9.745 4.04c.366-.898.892-1.796 1.624-2.544.732-.748 1.583-1.197 2.487-1.496l-3.979-9.724zM34.671 24.94l-9.745-4.04c-.366.898-.891 1.796-1.625 2.544-.732.748-1.582 1.197-2.485 1.646l3.978 9.724c2.165-.898 4.175-2.244 5.932-3.89 1.758-1.795 3.066-3.89 3.945-5.984zM11.07 20.9l-9.745 4.04c.879 2.094 2.187 4.189 3.945 5.984 1.757 1.646 3.766 2.992 5.933 3.89l3.978-9.724c-.904-.45-1.754-.898-2.487-1.646-.732-.748-1.258-1.646-1.624-2.543z" fill="#E74C3C"/><path d="M3.375 24.041l-2.063.898c.88 2.094 2.18 4.189 3.938 5.984 1.757 1.646 3.786 2.992 5.953 3.89l1.594-3.89c-3.85-1.197-7.137-3.59-9.422-6.882zm29.25 0c-2.286 3.292-5.571 5.685-9.422 6.882l1.594 3.89c2.167-.898 4.148-2.244 5.906-3.89a19.378 19.378 0 0 0 3.985-5.984l-2.063-.898zM13.688 7.585A7.522 7.522 0 0 0 10.5 13.72c0 .449.04.897.14 1.496l.422.15c.367-.898.909-1.796 1.641-2.544s1.582-1.197 2.485-1.645l-1.5-3.59zm8.624 0l-1.5 3.59c.903.45 1.752.898 2.485 1.646.732.748 1.274 1.646 1.64 2.543l.422-.15c.1-.598.141-1.046.141-1.495a7.521 7.521 0 0 0-3.188-6.134z" fill="#C0392B"/></g></svg>