<?xml version="1.0" encoding="utf-8"?>
<!-- Generator: Adobe Illustrator 22.0.1, SVG Export Plug-In . SVG Version: 6.00 Build 0)  -->
<svg version="1.1" id="Layer_1" xmlns="http://www.w3.org/2000/svg" xmlns:xlink="http://www.w3.org/1999/xlink" x="0px" y="0px"
	 viewBox="0 0 160 56" style="enable-background:new 0 0 160 56;" xml:space="preserve">
<style type="text/css">
	.st0{fill:#98A6B9;}
	.st1{fill-rule:evenodd;clip-rule:evenodd;fill:#98A6B9;}
</style>
<title>Group 24</title>
<desc>Created with Sketch.</desc>
<path id="Fill-8" class="st0" d="M127.5,23c0.7,0,1.2-0.4,1.3-0.8l0.7-7.8c0-0.8-0.9-1.4-2-1.4c-1.1,0-2,0.6-2,1.4l0.7,7.8
	C126.3,22.6,126.8,23,127.5,23L127.5,23"/>
<path id="Fill-9" class="st0" d="M123.2,23.6l-6.2-4.5c-0.6-0.4-1.6,0.1-2.2,1.1s-0.5,2.1,0.2,2.5l6.9,3.3c0.4,0.2,1-0.2,1.4-0.8
	C123.6,24.6,123.6,23.9,123.2,23.6z"/>
<path id="Fill-10" class="st0" d="M131.7,25.2c0.3,0.6,0.9,0.9,1.4,0.8l6.9-3.3c0.6-0.4,0.7-1.5,0.2-2.5c-0.6-1-1.5-1.4-2.2-1.1
	l-6.2,4.5C131.4,23.9,131.4,24.6,131.7,25.2L131.7,25.2"/>
<path id="Fill-11" class="st0" d="M127.5,33c0.7,0,1.2,0.4,1.3,0.8l0.7,7.8c0,0.8-0.9,1.4-2,1.4c-1.1,0-2-0.6-2-1.4l0.7-7.8
	C126.3,33.4,126.8,33,127.5,33L127.5,33"/>
<path id="Fill-12" class="st0" d="M131.7,30.8c0.3-0.6,0.9-0.9,1.4-0.8l6.9,3.3c0.6,0.4,0.7,1.5,0.2,2.5c-0.6,1-1.5,1.4-2.2,1.1
	l-6.2-4.5C131.4,32.1,131.4,31.4,131.7,30.8L131.7,30.8"/>
<path id="Fill-13" class="st0" d="M123.3,30.8c0.3,0.6,0.3,1.3,0,1.6l-6.2,4.5c-0.6,0.4-1.6-0.1-2.2-1.1s-0.5-2.1,0.2-2.5L122,30
	C122.3,29.9,122.9,30.2,123.3,30.8L123.3,30.8"/>
<path id="Fill-14" class="st0" d="M143.3,36h0.1c0.1,0,0.3,0,0.3-0.2c0-0.1-0.1-0.2-0.2-0.2c-0.1,0-0.1,0-0.1,0V36H143.3z
	 M143.3,36.5h-0.2v-1c0.1,0,0.2,0,0.4,0s0.3,0,0.3,0.1c0.1,0,0.1,0.1,0.1,0.2c0,0.1-0.1,0.2-0.2,0.2l0,0c0.1,0,0.1,0.1,0.2,0.3
	c0,0.2,0,0.2,0.1,0.3h-0.2c0,0-0.1-0.1-0.1-0.3c0-0.1-0.1-0.2-0.2-0.2h-0.1v0.4H143.3z M143.5,35.2c-0.4,0-0.8,0.4-0.8,0.8
	c0,0.5,0.3,0.8,0.8,0.8c0.4,0,0.8-0.4,0.8-0.8S144,35.2,143.5,35.2L143.5,35.2z M143.5,35c0.6,0,1,0.4,1,1s-0.4,1-1,1s-1-0.4-1-1
	S142.9,35,143.5,35L143.5,35z"/>
<g>
	<path class="st1" d="M87.5,32c0,0.2,0,0.5-0.1,0.7c-0.3,0.9-1.2,1.7-2.4,1.7c-1,0-1.8-0.6-1.8-1.7c0-1.8,2-2.3,4.2-2.3V32L87.5,32z
		 M91,28.8c0-3-1.3-5.6-5.5-5.6c-2.2,0-3.9,0.6-4.9,1.2l0.7,2.4c0.9-0.5,2.3-1,3.6-1c2.2,0,2.5,1.2,2.5,2V28c-4.7,0-7.7,1.6-7.7,5
		c0,2,1.5,3.9,4.2,3.9c1.6,0,3-0.6,3.8-1.7h0.1c0,0,0.5,2.3,3.5,1.4c-0.2-0.9-0.2-1.9-0.2-3.1V28.8L91,28.8z"/>
	<path class="st1" d="M17.5,19.3c0,0,3.1,12.6,3.6,14.7c0.6,2.4,1.6,3.3,4.6,2.7l1.9-7.8c0.5-1.9,0.8-3.3,1.1-5.3h0.1
		c0.2,2,0.5,3.4,0.9,5.3c0,0,0.8,3.6,1.2,5.4c0.4,1.9,1.5,3,4.4,2.4l4.6-17.4h-3.7l-1.6,7.5c-0.4,2.2-0.8,3.9-1.1,5.9h-0.1
		c-0.3-2-0.6-3.6-1-5.7l-1.6-7.7H27l-1.7,7.5c-0.5,2.3-1,4.1-1.3,6h-0.1c-0.3-1.8-0.7-4.1-1.1-6.3c0,0-1-5.3-1.4-7.2H17.5L17.5,19.3
		z"/>
	<path class="st1" d="M46.9,32c0,0.2,0,0.5-0.1,0.7c-0.3,0.9-1.2,1.7-2.4,1.7c-1,0-1.8-0.6-1.8-1.7c0-1.8,2-2.3,4.2-2.3V32L46.9,32z
		 M50.5,28.8c0-3-1.3-5.6-5.5-5.6c-2.2,0-3.9,0.6-4.9,1.2l0.7,2.4c0.9-0.5,2.2-1,3.6-1c2.2,0,2.5,1.2,2.5,2V28c-4.7,0-7.7,1.6-7.7,5
		c0,2,1.5,3.9,4.2,3.9c1.6,0,3-0.6,3.8-1.7h0.1c0,0,0.5,2.3,3.5,1.4c-0.2-0.9-0.2-1.9-0.2-3.1V28.8L50.5,28.8z"/>
	<polygon class="st1" points="56.3,32.9 56.3,19.2 52.8,19.2 52.8,36.6 56.3,36.6 56.3,32.9 	"/>
	<path class="st1" d="M102.5,19.3v12.8c0,1.8,0.3,3,1,3.8c0.6,0.7,1.6,1.1,2.9,1.1c1,0,2.1-0.2,2.6-0.4l0-2.8
		c-0.4,0.1-0.8,0.2-1.3,0.2c-1.2,0-1.6-0.8-1.6-2.4v-4.9h3.1v-3.3h-3.1v-4.1H102.5L102.5,19.3z"/>
	<path class="st1" d="M93.4,23.6v13H97v-6.7c0-0.4,0-0.7,0.1-1c0.3-1.4,1.3-2.3,2.9-2.3c0.4,0,0.7,0,1,0.1v-3.4
		c-0.3-0.1-0.5-0.1-0.8-0.1c-1.4,0-2.9,0.9-3.5,2.8h-0.1v-2.5H93.4L93.4,23.6z"/>
	<path class="st1" d="M58.8,23.6v13h3.5V29c0-0.4,0-0.7,0.2-1.1c0.3-0.8,1-1.7,2.2-1.7c1.4,0,2.1,1.2,2.1,3v7.4h3.5v-7.7
		c0-0.3,0-0.8,0.1-1.1c0.3-0.9,1.1-1.6,2.1-1.6c1.4,0,2.1,1.2,2.1,3.2v7.1h3.5v-7.7c0-4.1-2.1-5.7-4.4-5.7c-1,0-1.8,0.3-2.6,0.7
		c-0.6,0.4-1.2,0.9-1.7,1.6h-0.1c-0.6-1.4-1.9-2.3-3.6-2.3c-2.2,0-3.2,1.1-3.8,2.1h-0.1v-1.8H58.8L58.8,23.6z"/>
</g>
</svg>
