<?xml version="1.0" encoding="utf-8"?>
<!-- Generator: Adobe Illustrator 22.0.1, SVG Export Plug-In . SVG Version: 6.00 Build 0)  -->
<svg version="1.1" id="Layer_1" xmlns="http://www.w3.org/2000/svg" xmlns:xlink="http://www.w3.org/1999/xlink" x="0px" y="0px"
	 viewBox="0 0 160 56" style="enable-background:new 0 0 160 56;" xml:space="preserve">
<style type="text/css">
	.st0{fill:#98A6B9;}
</style>
<title>Shape</title>
<desc>Created with Sketch.</desc>
<g id="Home_Desktop_v05" transform="translate(-336.000000, -720.000000)">
	<path id="Shape" class="st0" d="M418.9,739.2c0,1.3-1,2.3-2.3,2.3c-1.3,0-2.3-1-2.3-2.3c0-1.3,1-2.3,2.3-2.3
		C417.9,737,418.9,738,418.9,739.2z M409.5,743.8c0,0.2,0,0.6,0,0.6s-1.1-1.4-3.4-1.4c-3.9,0-6.9,2.9-6.9,6.9c0,4,3,6.9,6.9,6.9
		c2.4,0,3.4-1.5,3.4-1.5v0.6c0,0.3,0.2,0.5,0.5,0.5h2.9v-13.1c0,0-2.6,0-2.9,0C409.7,743.4,409.5,743.6,409.5,743.8z M409.5,752.3
		c-0.5,0.8-1.6,1.5-2.9,1.5c-2.3,0-4-1.4-4-3.8c0-2.4,1.7-3.8,4-3.8c1.2,0,2.4,0.7,2.9,1.5V752.3z M415,743.4h3.4v13.1H415V743.4z
		 M465.6,743c-2.3,0-3.4,1.4-3.4,1.4V737h-3.4v19.5c0,0,2.6,0,2.9,0s0.5-0.2,0.5-0.5v-0.6c0,0,1.1,1.5,3.4,1.5c3.9,0,6.9-3,6.9-6.9
		C472.5,746,469.4,743,465.6,743z M465,753.6c-1.3,0-2.3-0.7-2.9-1.5v-4.6c0.5-0.7,1.7-1.5,2.9-1.5c2.3,0,4,1.4,4,3.8
		C469,752.3,467.3,753.6,465,753.6z M457,748.7v7.8h-3.4v-7.4c0-2.2-0.7-3.1-2.6-3.1c-1,0-2.1,0.5-2.8,1.3v9.2h-3.4v-13.1h2.7
		c0.3,0,0.5,0.2,0.5,0.5v0.6c1-1,2.3-1.4,3.6-1.4c1.5,0,2.7,0.4,3.7,1.3C456.5,745.2,457,746.5,457,748.7z M436.7,743
		c-2.3,0-3.4,1.4-3.4,1.4V737h-3.5v19.5c0,0,2.6,0,2.9,0c0.3,0,0.5-0.2,0.5-0.5v-0.6c0,0,1.1,1.5,3.4,1.5c3.9,0,6.9-3,6.9-6.9
		C443.5,745.9,440.5,743,436.7,743z M436.1,753.6c-1.3,0-2.3-0.7-2.9-1.5v-4.6c0.5-0.7,1.7-1.5,2.9-1.5c2.3,0,4,1.4,4,3.8
		C440.1,752.3,438.4,753.6,436.1,753.6z M426.9,743c1,0,1.6,0.2,1.6,0.2v3.2c0,0-2.8-1-4.6,1.1v9.2h-3.4v-13.2c0,0,2.6,0,2.9,0
		c0.3,0,0.5,0.2,0.5,0.5v0.6C424.4,743.6,425.8,743,426.9,743z M391.7,755.3c-0.2-0.4-0.4-0.9-0.5-1.3c-0.3-0.6-0.6-1.2-0.8-1.8
		c-2.4-5.2-5.1-10.6-7.8-15.8l-0.1-0.2c-0.3-0.5-0.6-1.1-0.9-1.7c-0.4-0.6-0.7-1.3-1.3-1.9c-1.1-1.4-2.8-2.2-4.5-2.2
		c-1.8,0-3.4,0.8-4.5,2.1c-0.5,0.6-0.9,1.3-1.3,1.9c-0.3,0.6-0.6,1.1-0.9,1.7l-0.1,0.2c-2.7,5.2-5.4,10.6-7.8,15.8v0.1
		c-0.2,0.6-0.5,1.2-0.8,1.8c-0.2,0.4-0.4,0.8-0.5,1.3c-0.5,1.3-0.6,2.6-0.4,3.8c0.4,2.7,2.2,4.8,4.6,5.8c0.9,0.4,1.9,0.6,2.9,0.6
		c0.3,0,0.6,0,0.9-0.1c1.2-0.1,2.4-0.5,3.5-1.2c1.5-0.8,2.8-2,4.4-3.7c1.6,1.7,3,2.9,4.4,3.7c1.2,0.7,2.4,1.1,3.5,1.2
		c0.3,0,0.6,0.1,0.9,0.1c1,0,2-0.2,2.9-0.6c2.5-1,4.2-3.3,4.6-5.8C392.3,757.8,392.1,756.6,391.7,755.3z M375.8,757.1
		c-1.9-2.4-3.2-4.6-3.6-6.5c-0.2-0.8-0.2-1.5-0.1-2.2c0.1-0.6,0.3-1.1,0.6-1.5c0.7-1,1.8-1.6,3.1-1.6s2.5,0.6,3.1,1.6
		c0.3,0.4,0.5,0.9,0.6,1.5c0.1,0.6,0.1,1.4-0.1,2.2C378.8,752.4,377.6,754.7,375.8,757.1z M389.8,758.8c-0.2,1.8-1.5,3.4-3.2,4.1
		c-0.9,0.4-1.8,0.5-2.7,0.4c-0.9-0.1-1.8-0.4-2.7-0.9c-1.3-0.7-2.6-1.8-4-3.4c2.3-2.9,3.8-5.4,4.3-7.7c0.2-1.1,0.3-2.1,0.2-3
		c-0.1-0.9-0.5-1.7-1-2.4c-1.1-1.6-2.9-2.5-5-2.5c-2.1,0-3.9,1-5,2.5c-0.5,0.7-0.8,1.5-1,2.4c-0.1,0.9-0.1,1.9,0.2,3
		c0.5,2.3,2,4.9,4.3,7.8c-1.5,1.6-2.8,2.7-4,3.4c-0.9,0.5-1.8,0.8-2.7,0.9c-1,0.1-1.9,0-2.7-0.4c-1.7-0.7-3-2.3-3.2-4.1
		c-0.1-0.9,0-1.8,0.3-2.8c0.1-0.4,0.3-0.7,0.5-1.1c0.2-0.6,0.5-1.2,0.8-1.8v-0.1c2.4-5.2,5.1-10.6,7.8-15.7l0.1-0.2
		c0.3-0.5,0.6-1.1,0.9-1.6c0.3-0.6,0.6-1.1,1-1.6c0.7-0.9,1.7-1.3,2.8-1.3c1.1,0,2.1,0.5,2.8,1.3c0.4,0.5,0.7,1,1,1.6
		c0.3,0.5,0.6,1.1,0.9,1.6l0.1,0.2c2.7,5.2,5.3,10.6,7.8,15.7c0.3,0.6,0.5,1.2,0.8,1.8c0.2,0.4,0.4,0.8,0.5,1.1
		C389.9,757,390,757.9,389.8,758.8z"/>
</g>
</svg>
