<?xml version="1.0" encoding="utf-8"?>
<!-- Generator: Adobe Illustrator 22.0.1, SVG Export Plug-In . SVG Version: 6.00 Build 0)  -->
<svg version="1.1" id="Layer_1" xmlns="http://www.w3.org/2000/svg" xmlns:xlink="http://www.w3.org/1999/xlink" x="0px" y="0px"
	 viewBox="0 0 160 56" style="enable-background:new 0 0 160 56;" xml:space="preserve">
<style type="text/css">
	.st0{fill:#98A6B9;}
</style>
<g>
	<path id="XMLID_3_" class="st0" d="M30.2,20.4c-1.4,0-1.7,0.6-1.7,1.9v2.2h3.6L31.7,28h-3.2v10.8h-4.3V28h-2.9v-3.5h2.9v-2.1
		c0-3.6,1.4-5.5,5.5-5.5c0.9,0,1.9,0.1,2.5,0.1v3.3"/>
	<path class="st0" d="M32.4,31.2c0-4,1.9-7,5.9-7c2.2,0,3.5,1.1,4.1,2.5v-2.2h4.1v14.3h-4.1v-2.2c-0.6,1.4-2,2.5-4.1,2.5
		c-4,0-5.9-3-5.9-7 M36.7,32.1c0,2.1,0.8,3.5,2.8,3.5c1.8,0,2.7-1.3,2.7-3.3v-1.4c0-2-0.9-3.3-2.7-3.3c-2,0-2.8,1.4-2.8,3.5V32.1z"
		/>
	<path id="XMLID_2_" class="st0" d="M55.5,24.2c1.7,0,3.3,0.4,4.1,1l-1,3.1c-0.7-0.3-1.7-0.7-2.9-0.7c-2.3,0-3.4,1.4-3.4,3.7v0.8
		c0,2.3,1,3.7,3.4,3.7c1.1,0,2.2-0.3,2.9-0.7l1,3.1c-0.9,0.6-2.5,1-4.1,1c-5.1,0-7.4-2.7-7.4-7.1v-0.7
		C48.1,26.9,50.5,24.2,55.5,24.2"/>
	<path class="st0" d="M60.3,32.2v-1.3c0-4.1,2.3-6.7,7-6.7c4.4,0,6.4,2.7,6.4,6.7v2.3h-9.1c0.1,2,1,2.8,3.4,2.8
		c1.6,0,3.3-0.3,4.6-0.9l0.8,3c-1.1,0.6-3.5,1.1-5.6,1.1C62.3,39.1,60.3,36.4,60.3,32.2 M64.6,30.3h5.2V30c0-1.6-0.6-2.8-2.5-2.8
		C65.3,27.2,64.6,28.4,64.6,30.3"/>
	<path class="st0" d="M89.7,32.1c0,4-1.9,7-5.9,7c-2.2,0-3.7-1.1-4.3-2.5v2.2h-4.1V17.3l4.3-0.4v9.6c0.6-1.3,2-2.3,4-2.3
		c4,0,5.9,3,5.9,7 M85.4,31.1c0-2-0.8-3.5-2.9-3.5c-1.8,0-2.7,1.3-2.7,3.3v1.5c0,2,1,3.3,2.7,3.3c2.1,0,2.9-1.5,2.9-3.5V31.1z"/>
	<path class="st0" d="M91.2,32v-0.7c0-4.1,2.3-7.1,7.1-7.1c4.8,0,7.1,3,7.1,7.1V32c0,4.1-2.3,7.1-7.1,7.1
		C93.5,39.1,91.2,36.1,91.2,32 M101.1,31c0-1.9-0.8-3.4-2.8-3.4c-2,0-2.8,1.5-2.8,3.4v1.3c0,1.9,0.8,3.4,2.8,3.4
		c2,0,2.8-1.5,2.8-3.4V31z"/>
	<path class="st0" d="M106.9,32v-0.7c0-4.1,2.3-7.1,7.1-7.1c4.8,0,7.1,3,7.1,7.1V32c0,4.1-2.3,7.1-7.1,7.1
		C109.2,39.1,106.9,36.1,106.9,32 M116.8,31c0-1.9-0.8-3.4-2.8-3.4c-2,0-2.8,1.5-2.8,3.4v1.3c0,1.9,0.8,3.4,2.8,3.4
		c2,0,2.8-1.5,2.8-3.4V31z"/>
	<polyline id="XMLID_1_" class="st0" points="127.1,31.3 131.3,24.5 135.9,24.5 131.5,31.5 136.1,38.8 131.5,38.8 127.1,31.8 
		127.1,38.8 122.7,38.8 122.7,17.3 127.1,16.9 	"/>
</g>
</svg>
