<?xml version="1.0" encoding="utf-8"?>
<!-- Generator: Adobe Illustrator 22.0.1, SVG Export Plug-In . SVG Version: 6.00 Build 0)  -->
<svg version="1.1" id="Layer_1" xmlns="http://www.w3.org/2000/svg" xmlns:xlink="http://www.w3.org/1999/xlink" x="0px" y="0px"
	 viewBox="0 0 160 56" style="enable-background:new 0 0 160 56;" xml:space="preserve">
<style type="text/css">
	.st0{fill:#98A6B9;}
</style>
<title>Group 26</title>
<desc>Created with Sketch.</desc>
<g id="Layer_2_1_">
	<g id="Blue">
		<path class="st0" d="M8.1,27.8c-0.2-0.2-0.5-0.3-0.8-0.1c-0.1,0.1-0.1,0.1-0.2,0.2l-4.7,9.3c-0.1,0.3,0,0.6,0.2,0.7
			C2.8,38,2.9,38,3,38h6.5c0.2,0,0.4-0.1,0.5-0.3C11.4,34.8,10.6,30.4,8.1,27.8z"/>
		<path class="st0" d="M11.5,19.3c-2.4,3.6-2.6,8.2-0.7,12.1l3.1,6.3c0.1,0.2,0.3,0.3,0.5,0.3h6.5c0.3,0,0.6-0.2,0.6-0.6
			c0-0.1,0-0.2-0.1-0.2c0,0-8.7-17.5-8.9-17.9C12.3,19,12,18.9,11.8,19C11.7,19.1,11.6,19.2,11.5,19.3z"/>
		<path class="st0" d="M87.6,26.8c0,2.3,1.1,4.1,5.3,4.9c2.5,0.5,3,0.9,3,1.8c0,0.8-0.5,1.3-2.3,1.3c-2.1,0-4.2-0.6-6.1-1.6v3.8
			c1.3,0.6,2.9,1.3,6,1.3c4.4,0,6.1-2,6.1-4.9 M99.7,33.4c0-2.7-1.5-4-5.5-4.9c-2.3-0.5-2.8-1-2.8-1.7c0-0.9,0.8-1.3,2.3-1.3
			c1.8,0,3.6,0.5,5.3,1.3v-3.6c-1.6-0.7-3.4-1.1-5.2-1.1c-4,0-6.1,1.8-6.1,4.6"/>
		<polygon class="st0" points="143.9,22.4 143.9,38 147.2,38 147.2,26.1 148.6,29.2 153.3,38 157.5,38 157.5,22.4 154.2,22.4 
			154.2,32.4 152.9,29.5 149.1,22.4 		"/>
		<rect x="119" y="22.4" class="st0" width="3.6" height="15.6"/>
		<path class="st0" d="M114.8,33.4c0-2.7-1.5-4-5.5-4.9c-2.3-0.5-2.8-1-2.8-1.7c0-0.9,0.8-1.3,2.3-1.3c1.8,0,3.6,0.5,5.3,1.3v-3.6
			c-1.6-0.7-3.4-1.1-5.2-1.1c-4,0-6.1,1.8-6.1,4.6c0,2.3,1.1,4.1,5.3,4.9c2.5,0.5,3,0.9,3,1.8c0,0.8-0.5,1.3-2.3,1.3
			c-2.1,0-4.2-0.6-6.1-1.6v3.8c1.3,0.6,2.9,1.3,6,1.3C113.1,38.2,114.8,36.3,114.8,33.4"/>
		<polygon class="st0" points="59.4,22.4 59.4,38 66.8,38 68,34.6 63,34.6 63,22.4 		"/>
		<polygon class="st0" points="44.6,22.4 44.6,25.7 48.6,25.7 48.6,38 52.3,38 52.3,25.7 56.6,25.7 56.6,22.4 		"/>
		<path class="st0" d="M39.3,22.4h-4.8L29,38h4.2l0.8-2.6c1.9,0.6,3.9,0.6,5.8,0l0.8,2.6h4.2L39.3,22.4z M36.9,32.5
			c-0.7,0-1.4-0.1-2-0.3l2-6.8l2,6.8C38.2,32.4,37.5,32.5,36.9,32.5z"/>
		<path class="st0" d="M79.7,22.4h-4.8L69.5,38h4.2l0.8-2.6c1.9,0.6,3.9,0.6,5.8,0L81,38h4.2L79.7,22.4z M77.3,32.5
			c-0.7,0-1.4-0.1-2-0.3l2-6.8l2,6.8C78.7,32.4,78,32.5,77.3,32.5z"/>
		<path class="st0" d="M135.8,22.4H131L125.5,38h4.2l0.8-2.6c1.9,0.6,3.9,0.6,5.8,0l0.8,2.6h4.2L135.8,22.4z M133.4,32.5
			c-0.7,0-1.4-0.1-2-0.3l2-6.8l2,6.8C134.8,32.4,134.1,32.5,133.4,32.5z"/>
	</g>
</g>
</svg>
