<?xml version="1.0" encoding="utf-8"?>
<!-- Generator: Adobe Illustrator 22.0.1, SVG Export Plug-In . SVG Version: 6.00 Build 0)  -->
<svg version="1.1" id="Layer_1" xmlns="http://www.w3.org/2000/svg" xmlns:xlink="http://www.w3.org/1999/xlink" x="0px" y="0px"
	 viewBox="0 0 160 56" style="enable-background:new 0 0 160 56;" xml:space="preserve">
<style type="text/css">
	.st0{fill:#98A6B9;}
</style>
<title>Group 28</title>
<desc>Created with Sketch.</desc>
<g id="Home_Desktop_v05" transform="translate(-891.000000, -721.000000)">
	<g id="Group-28" transform="translate(891.000000, 721.000000)">
		<g id="Group-27">
			<path id="Shape" class="st0" d="M40.9,22.5h-2.8c-0.6,0-1.1,0.4-1.1,1v16c0,0.5,0.5,1,1.1,1h2.8c0.3,0,0.6-0.1,0.8-0.3
				s0.3-0.4,0.3-0.7v-16C42,23,41.5,22.5,40.9,22.5z"/>
			<path id="Shape_1_" class="st0" d="M104.9,22.5h-2.8c-0.6,0-1.1,0.4-1.1,1v16c0,0.5,0.5,1,1.1,1h2.8c0.6,0,1.1-0.4,1.1-1v-16
				C106,23,105.5,22.5,104.9,22.5z"/>
			<path id="Shape_2_" class="st0" d="M77.9,22.5h-5.1h-2.6H65c-0.5,0-1,0.4-1,1v2.6c0,0.5,0.4,1,1,1h4.2v12.5c0,0.5,0.4,1,1,1h2.6
				c0.5,0,1-0.4,1-1V27H78c0.5,0,1-0.4,1-1v-2.6c0-0.3-0.1-0.5-0.3-0.7C78.5,22.6,78.2,22.5,77.9,22.5z"/>
			<path id="Shape_3_" class="st0" d="M124,26.1v-2.6c0-0.5-0.4-1-1-1h-5.1h-2.6H110c-0.6,0-1,0.4-1,1v2.6c0,0.5,0.4,1,1,1h4.2v12.5
				c0,0.5,0.4,1,1,1h2.6c0.6,0,1-0.4,1-1V27h4.1C123.6,27,124,26.6,124,26.1z"/>
			<path id="Shape_4_" class="st0" d="M58.2,22.8c-0.7-0.2-1.4-0.3-2.1-0.3c-2.4,0-4.5,1.3-5.6,2.2v-0.9c0-0.5-0.4-1-1-1H47
				c-0.5,0-1,0.4-1,1v15.7c0,0.5,0.4,1,1,1h2.6c0.3,0,0.5-0.1,0.7-0.3c0.2-0.2,0.3-0.4,0.3-0.7V28.3c2-1.3,3.4-1.8,4.3-1.8
				c0.6,0,1,0.1,1.4,0.4c0.5,0.3,0.8,0.9,1,1.5c0.2,0.6,0.2,1.1,0.2,1.4v9.6c0,0.5,0.4,1,1,1H61c0.5,0,1-0.4,1-1v-11
				c0,0,0-0.1,0-0.2c0-0.4-0.1-1.5-0.6-2.6C60.9,24.6,59.9,23.5,58.2,22.8z"/>
			<path id="Shape_5_" class="st0" d="M96.2,22.5h-2.6c-0.3,0-0.6,0.1-0.8,0.3s-0.4,0.4-0.4,0.7v11.1c-1.9,1.4-3.3,1.8-4.2,1.8
				c-0.5,0-1-0.1-1.3-0.4c-0.5-0.3-0.8-0.9-1-1.5c-0.2-0.6-0.3-1.1-0.3-1.5v-9.6c0-0.5-0.4-1-1-1H82c-0.5,0-1,0.4-1,1v11
				c0,0,0,0.1,0,0.2c0,0.4,0.1,1.5,0.6,2.6c0.5,1.1,1.5,2.3,3.3,2.9c0.7,0.2,1.4,0.3,2.1,0.3c2.5,0,4.6-1.3,5.7-2.2v0.9
				c0,0.5,0.4,1,1,1h2.6c0.3,0,0.5-0.1,0.6-0.3c0.1-0.2,0.1-0.4,0.1-0.7V23.5c0-0.2,0-0.5-0.1-0.7C96.7,22.6,96.5,22.5,96.2,22.5z"
				/>
			<circle id="Oval" class="st0" cx="71" cy="18.5" r="3"/>
			<circle id="Oval_1_" class="st0" cx="116" cy="18.5" r="3"/>
			<path id="Shape_6_" class="st0" d="M124.8,38.2c-0.1-0.2-0.3-0.4-0.6-0.6c-0.2-0.1-0.5-0.2-0.7-0.2s-0.5,0.1-0.7,0.2
				c-0.2,0.1-0.4,0.3-0.6,0.6S122,38.7,122,39s0.1,0.5,0.2,0.7s0.3,0.4,0.6,0.6s0.5,0.2,0.7,0.2s0.5-0.1,0.7-0.2s0.4-0.3,0.6-0.6
				s0.2-0.5,0.2-0.7S124.9,38.5,124.8,38.2z M124.6,39.6c-0.1,0.2-0.2,0.4-0.5,0.5s-0.4,0.2-0.6,0.2c-0.2,0-0.4-0.1-0.6-0.2
				s-0.3-0.2-0.5-0.5c-0.1-0.2-0.2-0.4-0.2-0.6c0-0.2,0.1-0.4,0.2-0.6c0.1-0.2,0.3-0.4,0.5-0.5c0.2-0.1,0.4-0.2,0.6-0.2
				c0.2,0,0.4,0.1,0.6,0.2c0.2,0.1,0.3,0.2,0.5,0.5s0.2,0.4,0.2,0.6C124.8,39.2,124.7,39.4,124.6,39.6z"/>
			<path id="Shape_7_" class="st0" d="M123.7,39.7c0,0-0.1-0.1-0.1-0.1c0.1,0,0.2-0.1,0.2-0.2c0.1-0.1,0.1-0.2,0.1-0.4
				c0-0.1,0-0.2-0.1-0.3c0-0.1-0.1-0.2-0.2-0.2c-0.1,0-0.2,0-0.3,0H123v2h0.2v-0.8h0.1c0.1,0,0.1,0,0.2,0.1c0.1,0,0.1,0.2,0.2,0.5
				l0.1,0.3h0.2l-0.2-0.4C123.8,39.9,123.7,39.8,123.7,39.7z M123.4,39.4h-0.2v-0.6h0.2c0.1,0,0.2,0,0.2,0s0.1,0,0.1,0.1
				c0,0,0,0.1,0,0.2c0,0.1,0,0.2-0.1,0.2C123.6,39.3,123.5,39.4,123.4,39.4z"/>
		</g>
	</g>
</g>
</svg>
