<?xml version="1.0" encoding="utf-8"?>
<!-- Generator: Adobe Illustrator 22.0.1, SVG Export Plug-In . SVG Version: 6.00 Build 0)  -->
<svg version="1.1" id="Layer_1" xmlns="http://www.w3.org/2000/svg" xmlns:xlink="http://www.w3.org/1999/xlink" x="0px" y="0px"
	 viewBox="0 0 160 56" style="enable-background:new 0 0 160 56;" xml:space="preserve">
<style type="text/css">
	.st0{fill:#98A6B9;}
</style>
<title>Group 29</title>
<desc>Created with Sketch.</desc>
<g id="Home_Desktop_v05" transform="translate(-1031.000000, -724.000000)">
	<g id="Group-29" transform="translate(1031.000000, 724.000000)">
		<path id="Shape" class="st0" d="M39.8,16.5c-1.7,0.7-6.6,4.2-9.3,6c3.2-1,11-2.6,15-2.6C44.3,19.1,40.8,16.9,39.8,16.5z"/>
		<path id="Shape_1_" class="st0" d="M24.5,40.5c1.1-0.5,11.2-4,20.6-4.6c0.2-0.8,1.2-3.6,1.4-4.4c-9.7,0.7-17.6,3.8-20.8,5.3
			L24.5,40.5z"/>
		<path id="Shape_2_" class="st0" d="M46.8,20.5c0,0-9.8,9.6-11.3,11c2.9-1,9-2.3,12.9-2.5c0.5-1.4,0.9-2.3,0.9-2.3l5.2-0.5
			C54.5,26.1,50.6,23,46.8,20.5z"/>
		<path id="Shape_3_" class="st0" d="M26.4,35.5c3.1-3.1,14.1-13,14.1-13c-5.7,1.3-11.7,3.1-13.8,4l-3.2,3.2c2.7-0.6,3.5-0.6,5.5-1
			L26.4,35.5z"/>
		<path id="Shape_4_" class="st0" d="M108.6,36.4c-1.2,1.3-2.8,2.1-5.3,2.1c-4.3,0-7.2-3.2-7.2-8.1s2.8-8.2,7.2-8.2
			c2.3,0,4.1,0.8,5.4,2.3c1.3,1.5,1.9,3.2,1.9,5.7C110.6,32.9,110,34.8,108.6,36.4z M105.2,26.1c-0.4-0.5-1-0.8-1.8-0.8
			c-1,0-1.8,0.6-2.1,1.6c-0.3,0.8-0.5,1.9-0.5,3.5c0,1.8,0.2,3.2,0.5,3.9c0.4,0.9,1.3,1.3,2.1,1.3c1.8,0,2.6-1.6,2.6-5.3
			C106,28.1,105.8,26.7,105.2,26.1z M128.8,38.2H125l-1.4-5.4c-0.3-1.3-0.7-2.8-0.9-3.8c-0.1-0.8-0.1-0.9-0.3-1.6
			c-0.1,0.7-0.1,0.9-0.4,2c-0.3,1.3-1,4-1.4,5.5l-0.8,3.2H116l-4.5-15.7h4.3l1.3,5.8c0.4,1.8,0.9,4.9,0.9,4.9s0.4-2.8,1.2-5.4
			l1.5-5.2h3.9l1.3,5.2c0.7,2.9,1.2,5.6,1.2,5.6c0.1-0.7,0.5-3.1,0.9-5.1l1.2-5.6h4.3L128.8,38.2z M88.7,38.1h4.3V15.5l-4.3,0.9
			V38.1z M80.4,38.1h4.3V15.5l-4.3,0.9V38.1z M72.1,38.2V24.4l4.2-0.9v14.7H72.1z M74.1,22.6c-1.4,0-2.6-1.1-2.6-2.5
			s1.2-2.5,2.6-2.5c1.4,0,2.5,1.1,2.5,2.5C76.8,21.5,75.6,22.6,74.1,22.6z M68.1,38.2H54.5v-3l8.2-13.8c0.6-0.9,0.9-1.7,0.9-1.7
			s-0.5-0.1-1.8-0.1h-6.7l1-3.5h13v3.1l-8.2,14.2c-0.5,0.8-0.8,1.4-0.8,1.4s1,0,1.8,0h7.3L68.1,38.2z"/>
		<path id="Shape_5_" class="st0" d="M136.5,22.5c-1.1,0-2-0.9-2-2c0-1.2,0.9-2,2-2s2,0.9,2,2S137.6,22.5,136.5,22.5z M136.5,18.8
			c-0.9,0-1.6,0.7-1.6,1.7s0.7,1.7,1.6,1.7s1.6-0.8,1.6-1.7S137.4,18.8,136.5,18.8z M137,21.6l-0.2-0.3c-0.1-0.3-0.3-0.5-0.4-0.6
			c-0.1-0.1-0.1-0.1-0.1-0.1v1h-0.4v-2.3h0.7c0.5,0,0.7,0.3,0.7,0.6c0,0.3-0.2,0.6-0.6,0.6c0.1,0.1,0.3,0.3,0.3,0.5l0.3,0.5H137z
			 M136.2,19.6v0.7h0.2c0.2,0,0.3,0,0.4-0.1c0.1-0.1,0.1-0.1,0.1-0.3c0-0.3-0.1-0.3-0.5-0.3H136.2z"/>
	</g>
</g>
</svg>
