<?xml version="1.0" standalone="no"?>
<!DOCTYPE svg PUBLIC "-//W3C//DTD SVG 20010904//EN"
 "http://www.w3.org/TR/2001/REC-SVG-20010904/DTD/svg10.dtd">
<svg version="1.0" xmlns="http://www.w3.org/2000/svg"
 width="32.000000pt" height="32.000000pt" viewBox="0 0 32.000000 32.000000"
 preserveAspectRatio="xMidYMid meet">
<metadata>
Created by potrace 1.16, written by Peter Selinger 2001-2019
</metadata>
<g transform="translate(0.000000,32.000000) scale(0.100000,-0.100000)"
fill="#000000" stroke="none">
<path d="M144 285 c-3 -8 -2 -20 2 -27 16 -25 -5 -98 -27 -98 -6 0 -8 24 -5
60 4 60 -6 82 -26 62 -8 -8 -8 -15 1 -26 7 -8 11 -32 9 -53 l-3 -37 -19 29
c-11 17 -19 38 -19 47 2 23 -16 33 -30 18 -9 -9 -8 -14 5 -24 11 -8 18 -26 18
-47 0 -19 7 -47 15 -63 9 -18 13 -41 10 -57 -7 -31 10 -39 90 -39 80 0 97 8
90 39 -3 16 1 39 10 57 8 16 15 44 15 63 0 21 7 39 18 47 13 10 14 15 5 24
-14 15 -32 5 -30 -18 0 -9 -8 -30 -19 -47 l-19 -29 -3 37 c-2 21 2 45 9 53 9
11 9 18 1 26 -13 13 -35 0 -28 -18 6 -17 -18 -91 -26 -78 -10 15 -12 58 -4 76
4 9 5 22 1 28 -9 15 -35 12 -41 -5z"/>
</g>
</svg>
