<?xml version="1.0" standalone="no"?>
<!DOCTYPE svg PUBLIC "-//W3C//DTD SVG 20010904//EN"
 "http://www.w3.org/TR/2001/REC-SVG-20010904/DTD/svg10.dtd">
<svg version="1.0" xmlns="http://www.w3.org/2000/svg"
 width="32.000000pt" height="32.000000pt" viewBox="0 0 32.000000 32.000000"
 preserveAspectRatio="xMidYMid meet">
<metadata>
Created by potrace 1.16, written by Peter Selinger 2001-2019
</metadata>
<g transform="translate(0.000000,32.000000) scale(0.100000,-0.100000)"
fill="#000000" stroke="none">
<path d="M144 289 c-3 -6 -2 -15 4 -21 14 -14 -10 -108 -29 -108 -5 0 -9 12
-8 28 0 24 1 25 10 7 7 -15 8 -13 3 10 -4 17 -7 41 -8 54 -1 13 -6 26 -13 28
-16 6 -27 -17 -14 -30 6 -6 11 -29 11 -51 l0 -40 -24 33 c-14 18 -22 39 -20
46 7 18 -15 30 -29 15 -9 -9 -8 -14 5 -24 11 -8 18 -26 18 -47 0 -19 7 -47 15
-63 9 -18 13 -41 10 -57 -7 -31 10 -39 90 -39 80 0 97 8 90 39 -3 16 1 39 10
57 8 16 15 44 15 63 0 21 7 39 18 47 13 10 14 15 5 24 -14 15 -36 3 -29 -15 2
-7 -6 -28 -20 -46 l-24 -33 0 40 c0 22 5 45 11 51 13 13 2 36 -14 30 -7 -2
-12 -15 -13 -28 -1 -13 -4 -37 -8 -54 -5 -23 -4 -25 3 -10 9 18 10 17 10 -7 1
-16 -3 -28 -8 -28 -19 0 -43 94 -29 108 13 13 2 32 -17 32 -8 0 -17 -5 -21
-11z"/>
</g>
</svg>
