<?xml version="1.0" standalone="no"?>
<!DOCTYPE svg PUBLIC "-//W3C//DTD SVG 20010904//EN"
 "http://www.w3.org/TR/2001/REC-SVG-20010904/DTD/svg10.dtd">
<svg version="1.0" xmlns="http://www.w3.org/2000/svg"
 width="32.000000pt" height="32.000000pt" viewBox="0 0 32.000000 32.000000"
 preserveAspectRatio="xMidYMid meet">
<metadata>
Created by potrace 1.16, written by Peter Selinger 2001-2019
</metadata>
<g transform="translate(0.000000,32.000000) scale(0.100000,-0.100000)"
fill="#000000" stroke="none">
<path d="M80 256 c0 -18 7 -39 15 -46 17 -14 21 -85 5 -95 -5 -3 -10 -15 -10
-26 0 -10 -7 -19 -15 -19 -8 0 -15 -9 -15 -20 0 -19 7 -20 110 -20 103 0 110
1 110 20 0 11 -7 20 -15 20 -8 0 -15 9 -15 19 0 11 -4 23 -10 26 -16 10 -12
91 5 105 8 7 15 25 15 41 0 22 -5 29 -20 29 -11 0 -20 -4 -20 -10 0 -5 -7 -10
-15 -10 -8 0 -15 5 -15 10 0 6 -9 10 -20 10 -11 0 -20 -4 -20 -10 0 -5 -7 -10
-15 -10 -8 0 -15 5 -15 10 0 6 -9 10 -20 10 -16 0 -20 -7 -20 -34z"/>
</g>
</svg>
