<?xml version="1.0" standalone="no"?>
<!DOCTYPE svg PUBLIC "-//W3C//DTD SVG 20010904//EN"
 "http://www.w3.org/TR/2001/REC-SVG-20010904/DTD/svg10.dtd">
<svg version="1.0" xmlns="http://www.w3.org/2000/svg"
 width="32.000000pt" height="32.000000pt" viewBox="0 0 32.000000 32.000000"
 preserveAspectRatio="xMidYMid meet">
<metadata>
Created by potrace 1.16, written by Peter Selinger 2001-2019
</metadata>
<g transform="translate(0.000000,32.000000) scale(0.100000,-0.100000)"
fill="#000000" stroke="none">
<path d="M80 256 c0 -18 7 -39 15 -46 19 -16 19 -74 0 -90 -8 -7 -15 -21 -15
-31 0 -11 -4 -19 -10 -19 -5 0 -10 -9 -10 -20 0 -19 7 -20 105 -20 98 0 105 1
105 20 0 11 -4 20 -10 20 -5 0 -10 6 -10 14 0 7 -7 19 -15 26 -22 18 -19 83 5
105 11 10 20 31 20 47 0 23 -4 28 -25 28 -16 0 -25 -6 -25 -15 0 -8 -4 -15
-10 -15 -5 0 -10 7 -10 15 0 8 -9 15 -20 15 -11 0 -20 -7 -20 -15 0 -8 -7 -15
-15 -15 -8 0 -15 7 -15 15 0 8 -9 15 -20 15 -16 0 -20 -7 -20 -34z"/>
</g>
</svg>
